<svg xmlns="http://www.w3.org/2000/svg" width="256" height="256" viewBox="0 0 256 256"><circle cx="128" cy="128" r="127.9" fill="#a1d0c7" stroke="#7f7f7f" stroke-miterlimit="10" stroke-width=".22"/><path fill="none" stroke="#7f7f7f" stroke-miterlimit="10" stroke-width=".51" d="M135.8 35.6L41.3 128l94.5 92.5"/><path fill="#7f7f7f" d="M143 205.6c8.2-7.6 18.8-23 18.8-23 12.7-20 17.4-38.4 17.3-54.6s-4.6-34.6-17.3-54.6c0 0-10.6-15.4-18.8-23s-16.4-23.2-7.6-35.8a16.7 16.7 0 0 1 5.8-5.1c1.5-.7 3.5-1.5 4-.5s-1.8 3.3-3.2 4a2 2 0 0 1-.8.4c-1.7.8-14.5 8.4 21.1 46.2 18.3 19.4 27.3 43.9 26.2 68.4 1.1 24.5-7.9 49-26.2 68.4-35.6 37.8-22.8 45.4-21.1 46.2l.8.4c1.4.7 4.2 2.2 3.2 4s-2.5.2-4-.5a16.7 16.7 0 0 1-5.8-5.1c-8.8-12.6 0-28.8 7.6-35.8z"/><rect width="11.1" height="31.82" x="177.4" y="112.1" fill="#7f7f7f" rx="1.9" transform="rotate(-180 183 128)"/><path fill="#7f7f7f" d="M41.3 129.3v-2.4h155.99v2.4z"/><path fill="#7f7f7f" d="M37.1 122.3l4.2 5.7-4.2 5.7h20.6l4.2-5.7-4.2-5.7H37.1zm181.8 5.7l-24 6.7 2.4-6.7-2.4-6.7 24 6.7z"/></svg>