<svg xmlns="http://www.w3.org/2000/svg" width="256" height="256" viewBox="0 0 256 256"><circle cx="128" cy="128" r="128" fill="#a1d0c7" stroke="#7f7f7f" stroke-miterlimit="10" stroke-width=".22"/><circle cx="-128" cy="128" r="128" fill="#a1d0c7" stroke="#7f7f7f" stroke-miterlimit="10" stroke-width=".22"/><path fill="#7f7f7f" d="M164.2 142.4s17.4-.5 24.7 12a12 12 0 0 0 4.9 6c3.9 2.3 3.8 10.5-1.1 13.6 0 0 1.6-3.3-.8-4.8a28 28 0 0 0-5-2.4s-1.1 2.3 1.5 8.6c0 0-3.7-1.1-10.5-8.7 0 0-8.4-4.8-20.7 9.4 0 0-5.5 5.9 1.8 11.8s9 10.2 9 10.2.9 3.4 5.2 3.3a34.3 34.3 0 0 0 7.3-.9s4.3-1.2 6.4 2.2 2.2 8.1-.8 9c0 0 1.2-1.9.4-3.4 0 0-1.7 2-3 2.2s1.8-2.5.5-4-7.4-1-7.4-1-3 .7-4.2 2.7-1.9 4.1-1.2 6.1a3.5 3.5 0 0 0 2.4.8s-3.1 2.5-5.4-1.3a7.4 7.4 0 0 1 .7-4.3c1.1-2.2 0-6.1 0-6.1s-11.2-2.9-15 2.3c0 0 1.8-3.1-1.4-3.8s-.6-1.8-.6-1.8-1.5-.8-6.2-1c0 0-.6.1 1.1-1.9 0 0-3.7-.5-4.5-1.4s-.4-.5 2.2-2.4-1.5-.6-1.5-.6-6.8 2-5.1 5.8 2 3.3 3.7 5.2a7.3 7.3 0 0 1-.2 3.2s.9 2.1 15.1 7.4c0 0 5.3 1.6 4.5 6.7s-6.3 7.1-6.3 7.1 2.8-2.6 1.6-3.9-5.5-8.7-9-6.5a1.3 1.3 0 0 1-1.3-.8c-.4-.8-1.8-.1-2.3 3.1s-3 2.6-3 2.6-1.4.7 1.1 3.5a3.9 3.9 0 0 1-3.6-3.9c-.2-3.9 3.4-6.1 3.4-6.1s2.2-3.3-1.5-4.8-9.8 1.1-11.3 5.5c0 0-.4-2.9-1.4-3.1s-1.5 2.7-1.5 2.7-5.8-1.1-4.5-8.8a8 8 0 0 1-2.8 0c-1-.2 1.6-2.6 1.6-2.6s-1.3-.7-3.6 2.1a5.6 5.6 0 0 1 .4-3.9s-.9-1-2.1.6a8.5 8.5 0 0 1 .3-4.4 5.5 5.5 0 0 0-3.1 3.7 7.7 7.7 0 0 1 .6-5.8s-6.8 1.3-8.1-4c0 0-5.4 1.3-9.7-1.5 0 0-6-.8-9.4 3.2 0 0-1.7.7-8.1.1 0 0-21.6 12.5-25.7 12 0 0-2.3.1 7-5 0 0 3.7-2.6-7.4.6 0 0-2.1-1.5 5.5-4.6 0 0 3.1-2-2.5-1.1s1.8-3.9 1.8-3.9 2.7-1.9-4.9.8-3.2-3.9 8.1-6.1c0 0-1.4-4.1 9.7-7.6 0 0-15.6 1-16.2-1.6s16.9-2.3 16.9-2.3 4.1.3-.5-1.7-3.8-2.9-3.8-2.9l38-1.4s5.7-.6 13.8-11.7a25.1 25.1 0 0 1-9.7 2s1.4-.9 1.3-2a18.9 18.9 0 0 1-6.1.8s2.2-1.6 2.2-2.3a21.5 21.5 0 0 1-4.1.9s2.7-2.1 2.5-4.2c0 0-7.1 1.7-8.8 1.9 0 0 3-3.7 2.7-4.4s-4.7.5-5.6.1 3.6-2.3 3.4-3.4-6.2.7-4.7-3.4a40.7 40.7 0 0 0-21-20.8s-3.1-2.7 5.5-.2c0 0-18.3-8.8-21.5-16.4s15.4 7.3 20 7c0 0 2.4-.2-2.4-2.3s-19.5-22.1-19-28.4 4.9 1.2 4.9 1.2 7.8 11.8 10.5 12.4-13.7-17.9-13.5-23.8 3 .2 3 .2 5 8.4 6.8 9-4.8-6.4-4.3-11.4 7.1 4.8 7.1 4.8 2.3 2.3-.1-2.5-5.3-11-5-15 11.6 14.1 11.6 14.1 2 2.1.8-.9S61 48.3 62.6 39s5.8 4.5 5.8 4.5 1.6 4.5.8-2.2-1-11.6 1.2-12.2 1.1 8.9 4.4 15.5c0 0 1.7 2.5 1.1-3.8s2.6-5.9 2.6-5.9 1.2-.8 1.7 4.8 6.1 24.6 19.5 42.1c0 0 1.2 1.4.9-1.8s5.2 8.5 9.3 10.3c0 0 1.6 1.8-.2-2.8s.3-5.1.3-5.1 1-.6 2.1 3.5 7.4 12.4 8.2 13.8 3 4.5 6 20.9 7 6.6 7 6.6-.6-.6-2.2-.3.5-1.4 2.8-1.7-.6-1.6-1.4-1.2-.5-1.7 4.3-2.6-3.1-2.8-3.1-2.8-1.2-1 4-.5-1.8-2.4-1.8-2.4-1.9-.9 5.2-.2c0 0-2-3-2-4.2s2.5 1.2 2.5 1.2-.8-3.4-.5-3.8 2.3 1.6 3 1.4 1.7-1.2-2.6-4.3-5.1-5.5-5.1-5.5 3.1 1.3 4.3.9-6.6-6.7-5.5-14.3c0 0 1.6 2.1 2.6 1.9s-.5-6.7.5-7.3 2.5 3.3 2.5 3.3.4-7.3 1.4-8.1 2.6 8.5 4.2 9-1.6-9.3-1.6-9.3-1.8-7.2 1.8-12.1c0 0 .8 7.9 2.5 8.4 0 0-.4-23.2 4-24.4 0 0-.9 12.2.4 13.6s1.2-7.3 1.2-7.3.6-9.1 5.7-11.1c0 0 .8-3.9 4.1-4.9 0 0-.5 22.7.6 25.2s1.7-5.6 1.7-5.6 4.1-24.6 12.5-23.9c0 0-3.5 8.5-4.8 26.5 0 0 6.9-28.9 18.1-33 0 0-5.2 11.6-6.2 20.5 0 0-.3 3.5 1.9-1.8s6-6.8 6-6.8-4.9 14.5-4.4 18.4a14.1 14.1 0 0 1 4.7-3.7s-8.4 19-8.7 37.5c0 0-.5 2.9 3.2-1.9a3.2 3.2 0 0 1 2.2-.9c1.3.1-5.6 12.7-5.6 12.7s-.8 1.8.8 1.7-.7 6.1-5.6 9.5-15.4 14.4-16.7 29.4z"/></svg>