<svg xmlns="http://www.w3.org/2000/svg" width="256" height="256" viewBox="0 0 256 256"><circle cx="384" cy="128" r="128" fill="#a1d0c7" stroke="#7f7f7f" stroke-miterlimit="10" stroke-width=".22"/><circle cx="128" cy="128" r="128" fill="#a1d0c7" stroke="#7f7f7f" stroke-miterlimit="10" stroke-width=".22"/><path fill="#7f7f7f" stroke="#a1d0c7" stroke-miterlimit="10" stroke-width="2" d="M175.2 75.4s-16.7 5.4-67 47.7c0 0-11.2 9.4-39.1 23.4a265.2 265.2 0 0 0-36.5 21.3 10.1 10.1 0 0 0-4.3 10.1c1 5.3 4.1 12.6 13.3 17.7a9.5 9.5 0 0 0 11-1.2c11.5-10.1 42.5-36.6 68.3-53 32.4-20.5 65.6-50.2 65.6-50.2l8.6 12.5a5.5 5.5 0 0 0 5.8 2.2c7.5-1.9 23.6-7.2 26.7-19.1a7.2 7.2 0 0 0-.3-4.6 129 129 0 0 0-29.8-41.6 8.3 8.3 0 0 0-8.6-1.8c-5.3 1.8-14.2 6.4-23 17.4a5.6 5.6 0 0 0-.2 6.6z"/><path fill="#7f7f7f" stroke="#a1d0c7" stroke-miterlimit="10" stroke-width="2" d="M96 193.6c.1-7.5 2.4-11.6 2.4-11.6s23.3-50.2 38.7-79.4 19.2-45.5 19.2-45.5c3.1-.8 4-2.1 4.2-3a1.5 1.5 0 0 0-.8-1.6l-10.3-4.9a1.5 1.5 0 0 0-1.7.4c-.6.8-1 2.2.3 5.2 0 0-10.1 13.3-23 43.7S88 177 88 177s-1.7 4.5-7.5 9.3S68 209.1 68 209.1l9.2 4.3 9.1 4.3s9.7-16.5 9.7-24.1z"/></svg>