<svg xmlns="http://www.w3.org/2000/svg" width="256" height="256" viewBox="0 0 256 256"><circle cx="128" cy="128" r="128" fill="#a1d0c7" stroke="#7f7f7f" stroke-miterlimit="10" stroke-width=".22"/><path fill="#7f7f7f" d="M131.6 94.2s16.6-56.3 61.5-45a36.5 36.5 0 0 1 20.8 14.4 45.9 45.9 0 0 1 8.2 21.3 11.1 11.1 0 0 1 .2 1.9c.9 5.7 4.5 43.6-48.9 66.5 0 0-71.9 27.5-74.9 59.8 0 .6-.1 1.1-.1 1.7-.4 3.5-1 19.6 19 25.2 0 0-33.2 0-21.1-37.7a2.4 2.4 0 0 0 .2-.8c.8-2.3 9.1-25.1 64.9-54.6 0 0 59.3-30 41.9-67.4s-58.4-14.6-71.7 14.7z"/><path fill="#7f7f7f" d="M131.3 86.3s-16.7-44.1-55.6-42.7c0 0-41.9.2-35.6 52.5a96.4 96.4 0 0 0 15.8 42.3 135.9 135.9 0 0 0 50.7 44.5s-59.8-39.8-53-91.5c0 0 7-41.8 46.7-33.3 0 0 17.8 3.7 31 28.2z"/></svg>