<svg xmlns="http://www.w3.org/2000/svg" width="256" height="256" viewBox="0 0 256 256"><circle cx="128" cy="128" r="127.3" fill="#a1d0c7" stroke="#7f7f7f" stroke-miterlimit="10" stroke-width=".22"/><path fill="#7f7f7f" d="M51.7 126.9l-1.2 29s.7 18.8-32.1 20.4c0 0 155 4.9 192.7-2.5 0 0 10.8-2.4 10.6-19.4 0 0-.4-17.2-7.7-24.6a1.9 1.9 0 0 0-2.3-1.4c-1.7.5-1.6 3-1.6 3s.3 3 2.9 2.4l.6-.2s3.9 3.1 5.1 15.9c0 0-23.1 8.5-100.4 1.4l-.2-5h-1.6v.3s-14-1.5-58.4-9.6v-5.8h-1.7V127l-3.1-.4z"/><path fill="#7f7f7f" d="M141.8 158.5l-.6-107.3a1.3 1.3 0 0 1 1.8 0l1.9 107.7z"/><path fill="#7f7f7f" d="M139.9 69l3.6-.9 1.3.4v5.1l-1.6.7-1.8.3-1.5-.4V69zM95.6 90l105.6-27.7.2 1.4L95.8 91a.9.9 0 0 1-.2-1z"/><ellipse cx="201.3" cy="63" fill="#7f7f7f" rx=".4" ry=".7" transform="rotate(-10.9 200.235 62.997)"/><path fill="#7f7f7f" d="M98.8 90.1s-13 15-3.2 57c0 0 2.4-4.7 18.2-6.9 0 0 5.4-4.5 21.2-4.6a79.2 79.2 0 0 1 25.1.4s18.8 1.3 29.4 3.4c0 0-7.2-41.8 6.4-74.8z"/><path fill="#7f7f7f" d="M140.5 72l-79.2 65.4 1.3.2 78.8-65.3-.9-.3zm2.5 2.1l23.5 84.2.7-.3-23.8-84-.4.1zm3.9 60.5l.9 19.1h.6l-1.3-22.5-.2 3.4zm1.5 0l2.3 24h.4l-2.5-26.2-.2 2.2zm-7.9.1l-.6 23.5.4-1.1.7-24.3-.5 1.9zm-4.2.5l-2.3 22.6.5-.2 2.3-23.5-.5 1.1zm28.3.9l7 20.5.4-.2-8-23.2.6 2.9zm4.2.4l7.7 19.6.4-.1-8.6-21.5.5 2zm3.6.4l8.7 19 .4-.1-9.6-20.9.5 2zm3.6.4l18.2 16.7.2-.3-18.5-16.9.1.5z"/><path fill="#7f7f7f" d="M167.6 136.5l25.8 17.6.2-.3-26.2-17.8.2.5zm17.2 1.9l9.8 15.5.2-.3L185 138l-.2.4zm3-11.6l10.8 26.7.3-.4-11.4-28.5.3 2.2zm11.9 27.2l-4-89.4h.6l3.8 89.5-.4-.1z"/></svg>