<svg xmlns="http://www.w3.org/2000/svg" width="256" height="256" viewBox="0 0 256 256"><circle cx="128" cy="128" r="127.3" fill="#a1d0c7" stroke="#7f7f7f" stroke-miterlimit="10" stroke-width=".22"/><path fill="#d8d3cb" d="M51.7 126.9l-1.2 29s.7 18.8-32.1 20.4c0 0 155 4.9 192.7-2.5 0 0 10.8-2.4 10.6-19.4 0 0-.4-17.2-7.7-24.6a1.9 1.9 0 0 0-2.3-1.4c-1.7.5-1.6 3-1.6 3s.3 3 2.9 2.4l.6-.2s3.9 3.1 5.1 15.9c0 0-23.1 8.5-100.4 1.4l-.2-5h-1.6v.3s-14-1.5-58.4-9.6v-5.8h-1.7V127l-3.1-.4z"/><path fill="#d8d3cb" d="M141.8 158.5l-.6-107.3a1.3 1.3 0 0 1 1.8 0l1.9 107.7z"/><path fill="#d8d3cb" d="M139.9 69l3.6-.9 1.3.4v5.1l-1.6.7-1.8.3-1.5-.4V69zM95.6 90l105.6-27.7.2 1.4L95.8 91a.9.9 0 0 1-.2-1z"/><ellipse cx="201.3" cy="63" fill="#d8d3cb" rx=".4" ry=".7" transform="rotate(-10.9 200.235 62.997)"/><path fill="#d8d3cb" d="M98.8 90.1s-13 15-3.2 57c0 0 2.4-4.7 18.2-6.9 0 0 5.4-4.5 21.2-4.6a79.2 79.2 0 0 1 25.1.4s18.8 1.3 29.4 3.4c0 0-7.2-41.8 6.4-74.8z"/><path fill="#d8d3cb" d="M140.5 72l-79.2 65.4 1.3.2 78.8-65.3-.9-.3zm2.5 2.1l23.5 84.2.7-.3-23.8-84-.4.1zm3.9 60.5l.9 19.1h.6l-1.3-22.5-.2 3.4zm1.5 0l2.3 24h.4l-2.5-26.2-.2 2.2zm-7.9.1l-.6 23.5.4-1.1.7-24.3-.5 1.9zm-4.2.5l-2.3 22.6.5-.2 2.3-23.5-.5 1.1zm28.3.9l7 20.5.4-.2-8-23.2.6 2.9zm4.2.4l7.7 19.6.4-.1-8.6-21.5.5 2zm3.6.4l8.7 19 .4-.1-9.6-20.9.5 2zm3.6.4l18.2 16.7.2-.3-18.5-16.9.1.5z"/><path fill="#d8d3cb" d="M167.6 136.5l25.8 17.6.2-.3-26.2-17.8.2.5zm17.2 1.9l9.8 15.5.2-.3L185 138l-.2.4zm3-11.6l10.8 26.7.3-.4-11.4-28.5.3 2.2zm11.9 27.2l-4-89.4h.6l3.8 89.5-.4-.1z"/><path fill="#7f7f7f" d="M23.3 115.1c0 6.3-3.1 9-7.7 9s-5.3-2-5.3-3.4a1.9 1.9 0 0 1 2-2c2.6 0 1.9 3.5 4 3.5s3.2-1.5 3.2-6.6V93.5c0-3-.7-3.2-3.8-3.4v-1h11.4v1c-3.2.2-3.8.4-3.8 3.4zm10.9 1.6c-3.2 0-5.2-1.4-5.2-4.1s5-5.6 11.6-6.7v-2.3c0-2.9-.6-3.9-2.8-3.9s-3.6.9-4 2.8-1.1 1.8-2 1.8-1.5-.6-1.5-1.7 3-4.4 7.7-4.4 6 1.2 6 5.4v9.1q0 2.1 1.2 2.1a3.4 3.4 0 0 0 1.5-.4v1.4a5.6 5.6 0 0 1-3 .8 2.7 2.7 0 0 1-3-2.4c-1.8 1.2-4.1 2.5-6.5 2.5zm6.4-9.4c-4.7.7-7.9 1.8-7.9 4.8s1.2 2.6 2.8 2.6a9.1 9.1 0 0 0 5.1-2zm24 3.7c0 3.5-3 5.8-6.9 5.8a11.1 11.1 0 0 1-6.2-1.9l-.4 1.3h-1l-1.4-5.9.8-.2c2.4 3.6 4.9 5.2 8.1 5.2s4.1-1 4.1-3.2-2.5-2.8-5.5-3.5-6.9-1.7-6.9-5.4 2.6-5 6.3-5a8.4 8.4 0 0 1 5.3 1.5l.4-.9h1l1.1 4.9-.9.4c-1.8-3.3-4-4.4-6.7-4.4s-3.5 1-3.5 2.5 2.3 2.5 5.3 3.1 7 1.9 7 5.7zm20.5-3.5c0 5.2-3.6 9.3-9.1 9.3a8.9 8.9 0 0 1-9.1-9.3c0-5.3 3.7-9.3 9.1-9.3s9.1 4 9.1 9.3zm-3.7 0c0-4.5-1.5-7.8-5.4-7.8s-5.3 3.3-5.3 7.8 1.4 7.8 5.3 7.8 5.4-3.4 5.4-7.8zm17.6 8.7v-1c2.1-.2 2.5-.6 2.5-2v-9.8c0-2.3-1.1-3.2-3-3.2a9.3 9.3 0 0 0-5 1.6v11.4c0 1.4.5 1.8 2.6 2v1h-8.6v-1c2.1-.2 2.6-.6 2.6-2v-10c0-.9-.3-1.2-1.2-1.2h-1.4v-.8l4.8-3h1.2v1.9a12.9 12.9 0 0 1 6-1.9c2.3 0 5.5.9 5.5 5.2v9.8c0 1.4.5 1.8 2.6 2v1zm25.8.5c-3.2 0-5.2-1.4-5.2-4.1s5-5.6 11.6-6.7v-2.3c0-2.9-.6-3.9-2.8-3.9s-3.6.9-4 2.8-1.1 1.8-2 1.8-1.5-.6-1.5-1.7 3-4.4 7.7-4.4 6 1.2 6 5.4v9.1q0 2.1 1.2 2.1a3.4 3.4 0 0 0 1.5-.4v1.4a5.6 5.6 0 0 1-3 .8 2.9 2.9 0 0 1-3.1-2.4 11.7 11.7 0 0 1-6.4 2.5zm6.4-9.4c-4.7.7-7.9 1.8-7.9 4.8s1.2 2.6 2.8 2.6a9.1 9.1 0 0 0 5.1-2zm19.5 8.9v-1c2.2-.2 2.6-.6 2.6-2v-9.8c0-2.3-1.2-3.2-3-3.2a9 9 0 0 0-5 1.6v11.4c0 1.4.5 1.8 2.6 2v1h-8.6v-1c2.1-.2 2.6-.6 2.6-2v-10c0-.9-.3-1.2-1.2-1.2h-1.4v-.8l4.8-3h1.2v1.9a12.9 12.9 0 0 1 6-1.9c2.3 0 5.5.9 5.5 5.2v9.8c0 1.4.5 1.8 2.6 2v1zm21.6-24.6l4.8-3h1.2v24.6c0 1.4.5 1.8 2.6 2v1a30.5 30.5 0 0 0-6 .6v-2a7.1 7.1 0 0 1-5.2 2c-5.1 0-8-4.1-8-9.3s2.9-9.3 8-9.3a6.7 6.7 0 0 1 5.2 2v-6.6c0-.9-.4-1.2-1.3-1.2h-1.3zm2.6 10.4a5.3 5.3 0 0 0-4.3-2.2c-3.9 0-5.2 3.2-5.2 7.7s1.3 7.6 5.2 7.6a5.2 5.2 0 0 0 4.3-2.1zm28 13.9a9.5 9.5 0 0 1-3.5.7c-2.6 0-4.5-1-4.5-4.5v-11.8h-2.6v-.8c3-1 4.2-3.1 4.8-6.5h1.2v5.8h4.6v1.5h-4.6v11.8c0 1.9.6 2.7 2.2 2.7a6.7 6.7 0 0 0 2.4-.4zm13.5.3v-1c2.1-.2 2.6-.6 2.6-2v-9.8c0-2.3-1.2-3.2-3-3.2a9.6 9.6 0 0 0-5.1 1.6v11.4c0 1.4.5 1.8 2.6 2v1h-8.6v-1c2.1-.2 2.6-.6 2.6-2V93.6c0-.9-.3-1.2-1.1-1.2h-1.5v-.8l4.9-3h1.1v11.5a13.3 13.3 0 0 1 6-1.9c2.3 0 5.5.9 5.5 5.2v9.8c0 1.4.5 1.8 2.6 2v1zm14.7-10.6v1.9c0 4.4 1.5 7.6 6 7.6 2.5 0 4.7-1.7 5.8-4.4l1.5.7c-1.4 3.2-3.9 5.4-7.5 5.4-6.2 0-9.5-4.1-9.5-9.3s3.2-9.3 8.7-9.3 7.6 2.6 7.6 7.4zm9.2-1.5c0-2.9-1.8-4.4-4.2-4.4s-4.3 1.7-4.8 4.4zM65.1 145.6c.7 1.8 1.5 2.6 3.3 2.8v1H58.3v-1c2.9-.2 3.6-.7 3-2.4l-1.9-4.9H48.8L47 146c-.6 1.5.3 2.2 3.3 2.4v1h-8.6v-1a3.7 3.7 0 0 0 3.5-2.6l8.9-23.4h2.2zm-15.6-6.2h9.2l-4.6-12.1zm28.5-5.5a4.1 4.1 0 0 0-3.1 2v10.5c0 1.4.5 1.8 2.6 2v1h-8.6v-1c2.1-.2 2.6-.6 2.6-2v-9.9c0-1-.3-1.3-1.2-1.3h-1.4v-.8l4.8-3h1.2v2.5a7.1 7.1 0 0 1 5.1-2.5c2.2 0 3 1.1 3 2.4a1.8 1.8 0 0 1-1.9 1.9c-1.6 0-1.9-1.8-3.1-1.8zm25.9-2a1.5 1.5 0 0 1-1.5 1.5c-1.2 0-1.3-1-2.2-1s-1.2.5-1.6 1.4a6.1 6.1 0 0 1 1.6 4.4c0 3.9-2.7 6.8-7.4 6.8-2.1 0-2.6-.5-3.9-.5s-2 .6-2 1.3 1.6 1.5 7.5 1.7 7.8 1.7 7.8 4.4-3.3 5.2-8.6 5.2-8.8-1-8.8-4.2a3.5 3.5 0 0 1 2.1-3.1 2.9 2.9 0 0 1-2.1-3.1 3.2 3.2 0 0 1 2.9-3.4 6.3 6.3 0 0 1-2.3-5.1c0-3.9 2.7-6.8 7.4-6.8a7.5 7.5 0 0 1 4.7 1.4 5.6 5.6 0 0 1 4.2-2.7c1.2 0 2.2.6 2.2 1.8zm-10 19a31.1 31.1 0 0 1-5-.5c-1.2.5-1.8 1.2-1.8 2.2s2.5 3 6.5 3 6.2-1.3 6.2-2.8-1.3-1.8-5.9-1.9zm2.8-12.7c0-3-.9-5.3-3.9-5.3s-3.9 2.3-3.9 5.3.9 5.3 3.9 5.3 3.9-2.2 3.9-5.3zm25.9 2.5c0 5.3-3.7 9.3-9.1 9.3s-9.1-4-9.1-9.3 3.6-9.3 9.1-9.3 9.1 4 9.1 9.3zm-3.7 0c0-4.5-1.5-7.8-5.4-7.8s-5.4 3.3-5.4 7.8 1.5 7.8 5.4 7.8 5.4-3.4 5.4-7.8zm17.5 8.7v-1c2.1-.2 2.6-.6 2.6-2v-9.8c0-2.3-1.2-3.2-3-3.2a9 9 0 0 0-5 1.6v11.4c0 1.4.5 1.8 2.6 2v1h-8.7v-1c2.2-.2 2.7-.6 2.7-2v-9.9c0-1-.4-1.3-1.2-1.3h-1.5v-.8l4.9-3h1.2v1.9a12.5 12.5 0 0 1 6-1.9c2.2 0 5.4.9 5.4 5.2v9.8c0 1.4.5 1.8 2.6 2v1zm16.2.5c-3.2 0-5.2-1.4-5.2-4.1 0-4.2 4.9-5.6 11.5-6.7v-2.3c0-2.9-.6-3.9-2.7-3.9s-3.6.9-4.1 2.8-1 1.8-1.9 1.8-1.5-.5-1.5-1.7 2.9-4.4 7.6-4.4 6.1 1.2 6.1 5.4v9.1q0 2.1 1.2 2.1a2.7 2.7 0 0 0 1.4-.4v1.4a5.3 5.3 0 0 1-3 .8 2.8 2.8 0 0 1-3-2.4 11.3 11.3 0 0 1-6.4 2.5zm6.3-9.3c-4.7.6-7.8 1.7-7.8 4.7a2.4 2.4 0 0 0 2.7 2.6 8.6 8.6 0 0 0 5.1-2zm19.3-6.2l4.8-3h1.2v15c0 1.4.5 1.8 2.6 2v1a30.5 30.5 0 0 0-6 .6v-1.9a12.9 12.9 0 0 1-6 1.9c-2.3 0-5.5-.9-5.5-5.2v-8.3c0-1-.3-1.3-1.2-1.3h-1.4v-.8l4.9-3h1.1v13.4a2.9 2.9 0 0 0 3.1 3.2 9.7 9.7 0 0 0 5-1.7v-9.8c0-1-.4-1.3-1.2-1.3h-1.4zm20.9 14.7a9.1 9.1 0 0 1-3.5.7c-2.6 0-4.5-1-4.5-4.5v-11.7h-2.6v-.8c3-1.1 4.2-3.2 4.8-6.5h1.2v5.7h4.6v1.6h-4.6v11.7c0 1.9.7 2.7 2.2 2.7a6.7 6.7 0 0 0 2.4-.4zm18-4.8c0 3.4-3 5.7-7 5.7a10.1 10.1 0 0 1-6.1-1.9l-.5 1.3h-1l-1.4-5.8.9-.3c2.3 3.7 4.8 5.2 8.1 5.2s4.1-1 4.1-3.2-2.5-2.8-5.6-3.5-6.8-1.7-6.8-5.3 2.5-5.1 6.3-5.1a9.3 9.3 0 0 1 5.3 1.5l.4-.9h.9l1.2 5-.9.3c-1.8-3.2-4.1-4.4-6.7-4.4s-3.5 1-3.5 2.5 2.2 2.5 5.3 3.1 7 1.9 7 5.8z"/></svg>