<svg xmlns="http://www.w3.org/2000/svg" width="256" height="256" viewBox="0 0 256 256"><circle cx="128" cy="128" r="128" fill="#a1d0c7" stroke="#7f7f7f" stroke-miterlimit="10" stroke-width=".22"/><path fill="#d8d3cb" d="M190.3 71.3h-5.4c-10-7.1-19-7.6-19-7.6 3.9-4.3 8.3-4 8.3-4-.4 3.6.8 3.4.8 3.4 1.9-.1 2.4-.7 2.7-2.3S182 59 182 59a1.5 1.5 0 0 0 .8-2.5c-1.8-1.9-.9-2.3-.9-2.3a3.1 3.1 0 0 0 1.4-.9s.9-2.7-.4-2.9-1.1-1-1-2.5a4 4 0 0 0-.8-2.6c.1-5.2-1.1-5.1-1.1-5.1-3.9.5-3-.7-3-.7 2.3-2.6.5-3.4.5-3.4-2.8-1.9-3.2-.8-3.2-.8s-1.4 1.1-1.7.8a2.3 2.3 0 0 1 0-1.2c.8-.5.9-2 .9-2 0-2.5-2.6-2-2.6-2a4.9 4.9 0 0 0-2.7 1.6 3.8 3.8 0 0 1-2.3 0c-.7-3-5.4-2.7-4.8-1.5a5.5 5.5 0 0 1 .2 3.3c-4.9 2.2-3.3 3.4-3.3 3.4 1.7.1 1.1 2.6 1.1 2.6-2.7 7.3-5.2 6.6-5.2 6.6.8-3.7-1.7-10.3-5.8-13.1s-3.2-9.1-3.2-9.1c-10.6.9-9.8 16.7-9.8 16.7-11.1-7.6-20.2 11.5-20.2 11.5 5.7 7.9 17.7 9.8 17.7 9.8-2.2 2.7-3.3 6.5-3.9 10.3-4.4 2.8-31.5 23.7-28.9 108.4C73.1 69.1 108 28 109.7 24.2s-1.3-.9-1.3-.9c-66.6 77.9-9.5 202.9-3.1 216.3a6.7 6.7 0 0 0 .6 1.2 2.1 2.1 0 0 0 3.8-.8c.2-1.1-.2-2.6-.4-4.7a26 26 0 0 0-.4-2.8c3.6-13.6 14.5-25.9 33.5-41.8 21.2-17.8 25.8-44.9 26.3-48.3a1.9 1.9 0 0 0-.2-.8c-.3-.3-.5-.2-.6 0s-.2.3-.3.5c-.3 1.8-3.6 15.6-29.6 35.8-21.5 16.9-28.5 34.8-30.6 42-3.8-32.6-9-106.9 20.9-139.5 0 2.8.2 4.7.2 4.7 17.8 1.9 22.2-2 22.2-2 .8 9.3 13.2 18.1 13.2 18.1 14.1-8 10.9-19.1 10.9-19.1 18.2-.6 15.5-10.8 15.5-10.8z"/><path fill="#7f7f7f" d="M24.7 133.9v-1.2c3.8-.2 4.6-.5 4.6-4.1v-22.8c0-3.6-.8-3.9-4.6-4.1v-1.2h10.4l16.3 25v-19.7c0-3.6-.6-3.9-4.5-4.1v-1.2h11.5v1.2c-3.8.2-4.5.5-4.5 4.1v28.1h-2.6l-19.5-29.8v24.5c0 3.6.8 3.9 4.7 4.1v1.2zm42.6.6c-3.9 0-6.4-1.7-6.4-5.1 0-5.1 6.1-6.9 14.3-8.2v-2.9c0-3.5-.8-4.8-3.5-4.8s-4.4 1.1-4.9 3.5-1.4 2.3-2.4 2.3-1.9-.8-1.9-2.2 3.6-5.4 9.5-5.4c4 0 7.4 1.4 7.4 6.7v11.2c0 1.8.5 2.6 1.5 2.6a3.5 3.5 0 0 0 1.8-.5v1.7a6 6 0 0 1-3.7 1c-1.9 0-3.4-.9-3.7-2.9-2.2 1.5-5.1 3-8 3zm7.9-11.5c-5.9.8-9.7 2.2-9.7 5.9 0 2.2 1.4 3.2 3.4 3.2a11.2 11.2 0 0 0 6.3-2.5zm21.2-8.2a5 5 0 0 0-3.8 2.5v12.9c0 1.8.7 2.3 3.2 2.5v1.2H85.2v-1.2c2.6-.2 3.2-.7 3.2-2.5v-12.3c0-1.1-.4-1.6-1.4-1.6h-1.8v-.9l6-3.7h1.4v3.1a8.9 8.9 0 0 1 6.4-3.1c2.6 0 3.7 1.3 3.7 2.9a2.3 2.3 0 0 1-2.4 2.4c-2 0-2.3-2.2-3.9-2.2zm23 2.2c-.4-2.1-1.5-3.5-4-3.5-4.5 0-6 4.1-6 9.6s2.2 9.5 7 9.5 5.4-2.1 6.9-5.6l1.7 1c-1.6 3.9-4.3 6.6-9 6.6-7.2 0-11.2-4.9-11.2-11.5s4.4-11.4 10.6-11.4 8.4 2.7 8.4 5.4a2.1 2.1 0 0 1-2.2 2.2c-1 0-1.9-.7-2.2-2.3zm8 16.9v-1.2c2.6-.2 3.2-.7 3.2-2.5v-12.3c0-1.1-.4-1.6-1.5-1.6h-1.7v-.9l6-3.7h1.4v18.5c0 1.8.7 2.3 3.2 2.5v1.2zm8.2-29.9a2.8 2.8 0 0 1-5.6 0 2.8 2.8 0 1 1 5.6 0zm24.6 23.6c0 4.3-3.6 7-8.5 7a12.9 12.9 0 0 1-7.6-2.3l-.6 1.6h-1.2l-1.7-7.2 1-.3c2.9 4.5 6 6.4 10 6.4s5.1-1.2 5.1-3.9-3.1-3.5-6.9-4.3-8.5-2.1-8.5-6.7 3.2-6.2 7.8-6.2a10.6 10.6 0 0 1 6.6 1.9l.5-1.2h1.2l1.4 6.1-1.1.4c-2.2-3.9-5-5.4-8.3-5.4s-4.3 1.3-4.3 3.1 2.8 3.1 6.5 3.9 8.6 2.3 8.6 7.1zm22.2 0c0 4.3-3.7 7-8.5 7a12.7 12.7 0 0 1-7.6-2.3l-.6 1.6h-1.2l-1.8-7.2 1.1-.3c2.8 4.5 6 6.4 10 6.4s5.1-1.2 5.1-3.9-3.1-3.5-6.9-4.3-8.5-2.1-8.5-6.7 3.1-6.2 7.8-6.2a10.8 10.8 0 0 1 6.6 1.9l.5-1.2h1.1l1.4 6.1-1 .4c-2.3-3.9-5.1-5.4-8.3-5.4s-4.4 1.3-4.4 3.1 2.8 3.1 6.6 3.9 8.6 2.3 8.6 7.1zm16.3-12.2l5.9-3.7h1.5v18.5c0 1.8.6 2.3 3.2 2.5v1.2a46.3 46.3 0 0 0-7.4.7v-2.3a16.1 16.1 0 0 1-7.4 2.3c-2.8 0-6.8-1.1-6.8-6.4v-10.3c0-1.1-.4-1.6-1.5-1.6h-1.7v-.9l6-3.7h1.4v16.5c0 2.8 1.6 4 3.8 4a11.3 11.3 0 0 0 6.2-2.1v-12.2c0-1.1-.4-1.6-1.5-1.6h-1.7zm32.8 12.2c0 4.3-3.7 7-8.5 7a12.7 12.7 0 0 1-7.6-2.3l-.6 1.6h-1.2l-1.8-7.2 1.1-.3c2.9 4.5 6 6.4 10 6.4s5.1-1.2 5.1-3.9-3.1-3.5-6.9-4.3-8.5-2.1-8.5-6.7 3.2-6.2 7.8-6.2a10.6 10.6 0 0 1 6.6 1.9l.5-1.2h1.2l1.3 6.1-1 .4c-2.3-3.9-5.1-5.4-8.3-5.4s-4.4 1.3-4.4 3.1 2.9 3.1 6.6 3.9 8.6 2.3 8.6 7.1z"/></svg>