<svg xmlns="http://www.w3.org/2000/svg" width="256" height="256" viewBox="0 0 256 256"><circle cx="128" cy="128" r="127.3" fill="#a1d0c7" stroke="#7f7f7f" stroke-miterlimit="10" stroke-width=".22"/><path fill="#d8d3cb" d="M198.4 30.8a27.4 27.4 0 0 0-8.5-1.7c-10-5.8-21.4-5.8-21.4-5.8s-15.1-.9-43.7 5.5c-24.8 5.6-41.5-.1-50.7-5.5a63.7 63.7 0 0 0 47.2 8.9c33.7-6.8 44.5-5.8 44.5-5.8a65 65 0 0 1 14.3 2.5c-9.8.4-23.6 2.7-41.6 9.7-43.9 17.1-64.1-2.4-64.1-2.4 5.3 5.7 23.2 15.7 53.3 7.7 13.9-3.7 28.1-7.8 36-10.1a56.4 56.4 0 0 1 18.7-2.2 55.4 55.4 0 0 1 5.6.5c8.4 4.5 14.1 11.9 11.7 22.8-2.9 12.9-13.3 17.6-19.8 19.3l-14.8-.4-12.9 10.5 5.3-.8c.5.2 2.4.2 6-.2 21.4-2 45.3-.3 51.6-25.6 4.4-17.2-16.7-26.9-16.7-26.9zm-9.8 45l-1.6.3c8.1-4.1 20.6-13.2 16.5-29.4a27.2 27.2 0 0 0-7.2-12.7c7.6 2.5 14.1 7.4 15.2 16.7 2.7 23.9-22.9 25.1-22.9 25.1zm1.3-46.7a62.2 62.2 0 0 0-9.8-.2m7.9 3.2s7.2.9 8.3 1.9M75.8 146.1s18.5-10.3 24.6-6.6c0 0 6.1 5.3 4.2 11.7 0 0-2.2-9-6.5-9.5 0 0-16.9 6.4-22 6.9s-.3-2.5-.3-2.5z"/><path fill="#d8d3cb" d="M74.2 157.3s18.8-9.9 24.7-6c0 0 6 5.4 4 11.7 0 0-2-9.1-6.3-9.6 0 0-17.1 6-22.1 6.3s-.3-2.4-.3-2.4z"/><path fill="#d8d3cb" d="M72.7 169.5s18.3-10.6 24.4-7c0 0 6.3 5.1 4.5 11.6 0 0-2.3-9-6.7-9.4 0 0-16.8 6.7-21.9 7.3s-.3-2.5-.3-2.5zm33-68.1s11.1 5.3 32.5 7c0 0 2.3 8.1 1.1 23.7 0 0 6.5-2.5 4.9-24.1a5.7 5.7 0 0 0-2.7-4.3c-2.7-1.5-8.3-3.1-19.7-2.9l-17.2-2z"/><path fill="#d8d3cb" d="M97.9 102.4s9.8 7.4 30.4 13.4c0 0 .7 8.4-3.6 23.4 0 0 6.8-1.2 9.6-22.6a5.7 5.7 0 0 0-1.8-4.8c-2.4-2-7.5-4.7-18.7-6.8l-16.4-5.3z"/><path fill="#d8d3cb" d="M88.6 101.9s8.4 8.9 27.7 18.4c0 0-.8 8.4-7.6 22.4 0 0 6.9 0 13.3-20.6a5.6 5.6 0 0 0-.9-5c-2-2.4-6.6-5.9-17.3-9.9l-15.2-8.1z"/><path fill="#d8d3cb" d="M94.8 69.5s-63.9 4.1-53.3 71c0 0 6.2 30.8 33.8 48.7l13-10.8s-36-50.8 18-77.3-11.5-31.6-11.5-31.6z"/><path fill="#d8d3cb" d="M91.4 72c-1.8 6.5-3.8 17.2 0 25.6a4.4 4.4 0 0 0 3.7 2.6c11 1.2 56.5 4.7 88.2-12.5 0 0-1.7-3-7.4-2.8 0 0-.4-1.7 3-2.9 0 0 .4-3-12.6-3.4 0 0 27.1-4.8 22.2-9.4 0 0-56.2-17.8-89.7-5.3a12.2 12.2 0 0 0-7.4 8.1zm-4.5 104.1s15.6 20 40.8 21.1a2.1 2.1 0 0 1 1.9 1.6c.8 3 1.4 9.7-8.8 11.3 0 0 4.5 10.9-8.8 11.4 0 0 3.6 8.1-8 11.1s-28.7-43.4-28.7-43.4z"/><circle cx="159.2" cy="63.7" r="4.4" fill="#d8d3cb"/><path fill="#7f7f7f" d="M52.3 133.9v-1.2c3.8-.2 4.6-.5 4.6-4.1v-22.8c0-3.6-.8-3.9-4.6-4.1v-1.2h10.4l16.3 25v-19.7c0-3.6-.7-3.9-4.5-4.1v-1.2H86v1.2c-3.8.2-4.6.5-4.6 4.1v28.1h-2.5l-19.5-29.8v24.5c0 3.6.8 3.9 4.7 4.1v1.2zm40.9-13.1a18.5 18.5 0 0 0-.1 2.3c0 5.6 1.9 9.5 7.4 9.5 3.1 0 5.8-2.1 7.2-5.5l1.8.9c-1.7 3.9-4.7 6.6-9.3 6.6-7.6 0-11.7-4.9-11.7-11.5s4-11.4 10.8-11.4 9.4 3.3 9.4 9.1zm11.2-1.9c0-3.5-2.2-5.4-5.1-5.4s-5.3 2.1-5.9 5.4zm19.2-4.1a4.9 4.9 0 0 0-3.8 2.5v12.9c0 1.8.6 2.3 3.2 2.5v1.2h-10.6v-1.2c2.6-.2 3.2-.7 3.2-2.5v-12.3c0-1.1-.4-1.6-1.5-1.6h-1.7v-.9l5.9-3.7h1.5v3.1a8.7 8.7 0 0 1 6.4-3.1c2.6 0 3.6 1.3 3.6 2.9a2.2 2.2 0 0 1-2.3 2.4c-2.1 0-2.3-2.2-3.9-2.2zm7.9 19.1v-1.2c2.6-.2 3.3-.7 3.3-2.5v-12.3c0-1.1-.5-1.6-1.5-1.6h-1.8v-.9l6-3.7h1.5v18.5c0 1.8.6 2.3 3.2 2.5v1.2zm8.3-29.9a2.7 2.7 0 0 1-2.8 2.6 2.7 2.7 0 0 1-2.9-2.6 2.8 2.8 0 0 1 2.9-2.8 2.8 2.8 0 0 1 2.8 2.8zm17.7 29.5a10.2 10.2 0 0 1-4.4.9c-3.2 0-5.6-1.2-5.6-5.5v-14.6h-3.2v-1c3.7-1.3 5.2-3.9 5.9-8h1.5v7.1h5.8v1.9h-5.8v14.6c0 2.3.8 3.4 2.8 3.4a8 8 0 0 0 3-.6zm7.5-12.7v2.3c0 5.6 1.9 9.5 7.4 9.5 3.1 0 5.8-2.1 7.2-5.5l1.8.9c-1.7 3.9-4.7 6.6-9.3 6.6-7.6 0-11.7-4.9-11.7-11.5s4-11.4 10.8-11.4 9.4 3.3 9.4 9.1zm11.3-1.9c0-3.5-2.2-5.4-5.1-5.4s-5.3 2.1-5.9 5.4zm27.6 8.7c0 4.3-3.6 7-8.5 7a12.9 12.9 0 0 1-7.6-2.3l-.6 1.6H186l-1.7-7.2 1-.3c2.9 4.5 6 6.4 10 6.4s5.1-1.2 5.1-3.9-3.1-3.5-6.9-4.3-8.5-2.1-8.5-6.7 3.2-6.2 7.8-6.2a10.6 10.6 0 0 1 6.6 1.9l.5-1.2h1.2l1.4 6.1-1.1.4c-2.2-3.9-5.1-5.4-8.3-5.4s-4.4 1.3-4.4 3.1 2.9 3.1 6.6 3.9 8.6 2.3 8.6 7.1z"/></svg>