<svg xmlns="http://www.w3.org/2000/svg" width="256" height="256" viewBox="0 0 256 256"><circle cx="128" cy="128" r="128" fill="#a1d0c7" stroke="#7f7f7f" stroke-miterlimit="10" stroke-width=".22"/><circle cx="-128" cy="128" r="128" fill="#a1d0c7" stroke="#7f7f7f" stroke-miterlimit="10" stroke-width=".22"/><path fill="#d8d3cb" d="M164.2 142.4s17.4-.5 24.7 12a12 12 0 0 0 4.9 6c3.9 2.3 3.8 10.5-1.1 13.6 0 0 1.6-3.3-.8-4.8a28 28 0 0 0-5-2.4s-1.1 2.3 1.5 8.6c0 0-3.7-1.1-10.5-8.7 0 0-8.4-4.8-20.7 9.4 0 0-5.5 5.9 1.8 11.8s9 10.2 9 10.2.9 3.4 5.2 3.3a34.3 34.3 0 0 0 7.3-.9s4.3-1.2 6.4 2.2 2.2 8.1-.8 9c0 0 1.2-1.9.4-3.4 0 0-1.7 2-3 2.2s1.8-2.5.5-4-7.4-1-7.4-1-3 .7-4.2 2.7-1.9 4.1-1.2 6.1a3.5 3.5 0 0 0 2.4.8s-3.1 2.5-5.4-1.3a7.4 7.4 0 0 1 .7-4.3c1.1-2.2 0-6.1 0-6.1s-11.2-2.9-15 2.3c0 0 1.8-3.1-1.4-3.8s-.6-1.8-.6-1.8-1.5-.8-6.2-1c0 0-.6.1 1.1-1.9 0 0-3.7-.5-4.5-1.4s-.4-.5 2.2-2.4-1.5-.6-1.5-.6-6.8 2-5.1 5.8 2 3.3 3.7 5.2a7.3 7.3 0 0 1-.2 3.2s.9 2.1 15.1 7.4c0 0 5.3 1.6 4.5 6.7s-6.3 7.1-6.3 7.1 2.8-2.6 1.6-3.9-5.5-8.7-9-6.5a1.3 1.3 0 0 1-1.3-.8c-.4-.8-1.8-.1-2.3 3.1s-3 2.6-3 2.6-1.4.7 1.1 3.5a3.9 3.9 0 0 1-3.6-3.9c-.2-3.9 3.4-6.1 3.4-6.1s2.2-3.3-1.5-4.8-9.8 1.1-11.3 5.5c0 0-.4-2.9-1.4-3.1s-1.5 2.7-1.5 2.7-5.8-1.1-4.5-8.8a8 8 0 0 1-2.8 0c-1-.2 1.6-2.6 1.6-2.6s-1.3-.7-3.6 2.1a5.6 5.6 0 0 1 .4-3.9s-.9-1-2.1.6a8.5 8.5 0 0 1 .3-4.4 5.5 5.5 0 0 0-3.1 3.7 7.7 7.7 0 0 1 .6-5.8s-6.8 1.3-8.1-4c0 0-5.4 1.3-9.7-1.5 0 0-6-.8-9.4 3.2 0 0-1.7.7-8.1.1 0 0-21.6 12.5-25.7 12 0 0-2.3.1 7-5 0 0 3.7-2.6-7.4.6 0 0-2.1-1.5 5.5-4.6 0 0 3.1-2-2.5-1.1s1.8-3.9 1.8-3.9 2.7-1.9-4.9.8-3.2-3.9 8.1-6.1c0 0-1.4-4.1 9.7-7.6 0 0-15.6 1-16.2-1.6s16.9-2.3 16.9-2.3 4.1.3-.5-1.7-3.8-2.9-3.8-2.9l38-1.4s5.7-.6 13.8-11.7a25.1 25.1 0 0 1-9.7 2s1.4-.9 1.3-2a18.9 18.9 0 0 1-6.1.8s2.2-1.6 2.2-2.3a21.5 21.5 0 0 1-4.1.9s2.7-2.1 2.5-4.2c0 0-7.1 1.7-8.8 1.9 0 0 3-3.7 2.7-4.4s-4.7.5-5.6.1 3.6-2.3 3.4-3.4-6.2.7-4.7-3.4a40.7 40.7 0 0 0-21-20.8s-3.1-2.7 5.5-.2c0 0-18.3-8.8-21.5-16.4s15.4 7.3 20 7c0 0 2.4-.2-2.4-2.3s-19.5-22.1-19-28.4 4.9 1.2 4.9 1.2 7.8 11.8 10.5 12.4-13.7-17.9-13.5-23.8 3 .2 3 .2 5 8.4 6.8 9-4.8-6.4-4.3-11.4 7.1 4.8 7.1 4.8 2.3 2.3-.1-2.5-5.3-11-5-15 11.6 14.1 11.6 14.1 2 2.1.8-.9S61 48.3 62.6 39s5.8 4.5 5.8 4.5 1.6 4.5.8-2.2-1-11.6 1.2-12.2 1.1 8.9 4.4 15.5c0 0 1.7 2.5 1.1-3.8s2.6-5.9 2.6-5.9 1.2-.8 1.7 4.8 6.1 24.6 19.5 42.1c0 0 1.2 1.4.9-1.8s5.2 8.5 9.3 10.3c0 0 1.6 1.8-.2-2.8s.3-5.1.3-5.1 1-.6 2.1 3.5 7.4 12.4 8.2 13.8 3 4.5 6 20.9 7 6.6 7 6.6-.6-.6-2.2-.3.5-1.4 2.8-1.7-.6-1.6-1.4-1.2-.5-1.7 4.3-2.6-3.1-2.8-3.1-2.8-1.2-1 4-.5-1.8-2.4-1.8-2.4-1.9-.9 5.2-.2c0 0-2-3-2-4.2s2.5 1.2 2.5 1.2-.8-3.4-.5-3.8 2.3 1.6 3 1.4 1.7-1.2-2.6-4.3-5.1-5.5-5.1-5.5 3.1 1.3 4.3.9-6.6-6.7-5.5-14.3c0 0 1.6 2.1 2.6 1.9s-.5-6.7.5-7.3 2.5 3.3 2.5 3.3.4-7.3 1.4-8.1 2.6 8.5 4.2 9-1.6-9.3-1.6-9.3-1.8-7.2 1.8-12.1c0 0 .8 7.9 2.5 8.4 0 0-.4-23.2 4-24.4 0 0-.9 12.2.4 13.6s1.2-7.3 1.2-7.3.6-9.1 5.7-11.1c0 0 .8-3.9 4.1-4.9 0 0-.5 22.7.6 25.2s1.7-5.6 1.7-5.6 4.1-24.6 12.5-23.9c0 0-3.5 8.5-4.8 26.5 0 0 6.9-28.9 18.1-33 0 0-5.2 11.6-6.2 20.5 0 0-.3 3.5 1.9-1.8s6-6.8 6-6.8-4.9 14.5-4.4 18.4a14.1 14.1 0 0 1 4.7-3.7s-8.4 19-8.7 37.5c0 0-.5 2.9 3.2-1.9a3.2 3.2 0 0 1 2.2-.9c1.3.1-5.6 12.7-5.6 12.7s-.8 1.8.8 1.7-.7 6.1-5.6 9.5-15.4 14.4-16.7 29.4z"/><path fill="#7f7f7f" d="M13.9 135.2v-1c3.3-.2 4.1-.5 4.1-3.7v-20.2c0-3.3-.5-3.5-4.1-3.7v-1.1h14.7c7 0 12 2.1 12 7.6s-5 7.5-12.1 7.5h-6.3v9.9c0 3.2.7 3.5 4.1 3.7v1zm9.5-27.8c-.8 0-1.2.5-1.2 1.3v10.1h6.3c4.8 0 7.4-1.8 7.4-5.7s-2.6-5.7-7.3-5.7zm29.5 10.9a4 4 0 0 0-3.3 2.1V132c0 1.5.5 2 2.8 2.2v1h-9.5v-1c2.4-.2 2.9-.7 2.9-2.2v-11c0-1-.4-1.4-1.3-1.4h-1.6v-.8l5.3-3.3h1.4v2.8a7.5 7.5 0 0 1 5.6-2.8c2.3 0 3.3 1.2 3.3 2.5a2 2 0 0 1-2.1 2.2c-1.8 0-2.1-1.9-3.5-1.9zm27.4 7.3c0 5.9-4 10.3-10 10.3s-10-4.4-10-10.3 4-10.1 10-10.1 10 4.4 10 10.1zm-4 0c0-4.9-1.7-8.5-6-8.5s-5.9 3.6-5.9 8.5 1.6 8.6 5.9 8.6 6-3.6 6-8.6zm19.2 9.6v-1c2.4-.2 2.9-.7 2.9-2.2v-10.8c0-2.5-1.3-3.6-3.3-3.6a9.8 9.8 0 0 0-5.5 1.8V132c0 1.5.5 2 2.8 2.2v1h-9.5v-1c2.4-.2 2.9-.7 2.9-2.2v-11c0-1-.4-1.4-1.3-1.4h-1.6v-.8l5.3-3.3h1.4v2.1a13.5 13.5 0 0 1 6.5-2.1c1.8 0 4.2.5 5.3 2.5a14.5 14.5 0 0 1 7.3-2.5c2.6 0 6 .9 6 5.7V132c0 1.5.6 2 2.9 2.2v1h-9.4v-1c2.2-.2 2.8-.7 2.8-2.2v-10.8c0-2.5-1.3-3.6-3.3-3.6a9.8 9.8 0 0 0-5.7 1.9 8.8 8.8 0 0 1 .2 1.7V132c0 1.5.5 2 2.8 2.2v1zm28.9-11.6a14.1 14.1 0 0 0-.1 2c0 5 1.7 8.5 6.6 8.5 2.8 0 5.1-1.9 6.4-4.9l1.6.7c-1.5 3.6-4.2 6-8.2 6-6.8 0-10.5-4.4-10.5-10.3s3.6-10.1 9.6-10.1 8.4 2.9 8.4 8.1zm10-1.7a4.4 4.4 0 0 0-4.6-4.8c-3.2 0-4.7 1.9-5.2 4.8zm18.4 13a9.3 9.3 0 0 1-3.9.8c-2.8 0-5-1.1-5-5v-12.9h-2.8v-.9c3.3-1.1 4.6-3.4 5.3-7.1h1.3v6.3h5.1v1.7h-5.1v13c0 2 .7 3 2.4 3a6.6 6.6 0 0 0 2.7-.6zm14.8.3v-1c2.3-.2 2.8-.7 2.8-2.2v-10.8c0-2.5-1.3-3.6-3.3-3.6a10.3 10.3 0 0 0-5.5 1.8V132c0 1.5.6 2 2.9 2.2v1H155v-1c2.3-.2 2.9-.7 2.9-2.2v-21.6c0-1-.4-1.4-1.3-1.4H155v-.8l5.3-3.3h1.3v12.7a14.3 14.3 0 0 1 6.6-2.1c2.5 0 6 .9 6 5.7V132c0 1.5.6 2 2.9 2.2v1zm16.2-11.6c0 .7-.1 1.4-.1 2 0 5 1.8 8.5 6.6 8.5 2.8 0 5.2-1.9 6.5-4.9l1.5.7c-1.5 3.6-4.2 6-8.2 6-6.8 0-10.5-4.4-10.5-10.3s3.7-10.1 9.6-10.1 8.4 2.9 8.4 8.1zm10-1.7c0-3.1-1.9-4.8-4.5-4.8s-4.7 1.9-5.3 4.8zm19.3-3.1l5.3-3.3h1.3V132c0 1.5.6 2 2.9 2.2v1a37 37 0 0 0-6.6.7v-2.1a14.3 14.3 0 0 1-6.6 2.1c-2.5 0-6-1-6-5.8V121c0-1-.4-1.4-1.3-1.4h-1.6v-.8l5.3-3.3h1.3v14.6c0 2.6 1.4 3.6 3.4 3.6a10.3 10.3 0 0 0 5.5-1.8V121c0-1-.4-1.4-1.4-1.4h-1.5zm29.2 10.8c0 3.8-3.3 6.3-7.6 6.3a11.1 11.1 0 0 1-6.7-2.1l-.5 1.4h-1.1l-1.6-6.4 1-.3c2.5 4.1 5.3 5.7 8.9 5.7s4.5-1 4.5-3.4-2.8-3.2-6.1-3.9-7.6-1.8-7.6-5.9 2.8-5.5 6.9-5.5a9.4 9.4 0 0 1 5.9 1.7l.4-1.1h1.1l1.2 5.5-.9.3c-2-3.5-4.5-4.8-7.4-4.8s-3.9 1.2-3.9 2.7 2.5 2.8 5.9 3.5 7.6 2 7.6 6.3z"/></svg>