<svg xmlns="http://www.w3.org/2000/svg" width="256" height="256" viewBox="0 0 256 256"><circle cx="384" cy="128" r="128" fill="#a1d0c7" stroke="#7f7f7f" stroke-miterlimit="10" stroke-width=".22"/><circle cx="128" cy="128" r="128" fill="#a1d0c7" stroke="#7f7f7f" stroke-miterlimit="10" stroke-width=".22"/><path fill="#d8d3cb" stroke="#a1d0c7" stroke-miterlimit="10" stroke-width="2" d="M175.2 75.4s-16.7 5.4-67 47.7c0 0-11.2 9.4-39.1 23.4a265.2 265.2 0 0 0-36.5 21.3 10.1 10.1 0 0 0-4.3 10.1c1 5.3 4.1 12.6 13.3 17.7a9.5 9.5 0 0 0 11-1.2c11.5-10.1 42.5-36.6 68.3-53 32.4-20.5 65.6-50.2 65.6-50.2l8.6 12.5a5.5 5.5 0 0 0 5.8 2.2c7.5-1.9 23.6-7.2 26.7-19.1a7.2 7.2 0 0 0-.3-4.6 129 129 0 0 0-29.8-41.6 8.3 8.3 0 0 0-8.6-1.8c-5.3 1.8-14.2 6.4-23 17.4a5.6 5.6 0 0 0-.2 6.6z"/><path fill="#d8d3cb" stroke="#a1d0c7" stroke-miterlimit="10" stroke-width="2" d="M96 193.6c.1-7.5 2.4-11.6 2.4-11.6s23.3-50.2 38.7-79.4 19.2-45.5 19.2-45.5c3.1-.8 4-2.1 4.2-3a1.5 1.5 0 0 0-.8-1.6l-10.3-4.9a1.5 1.5 0 0 0-1.7.4c-.6.8-1 2.2.3 5.2 0 0-10.1 13.3-23 43.7S88 177 88 177s-1.7 4.5-7.5 9.3S68 209.1 68 209.1l9.2 4.3 9.1 4.3s9.7-16.5 9.7-24.1z"/><path fill="#7f7f7f" d="M37.7 113.4v-1c3.1-.2 3.7-.4 3.7-3.3V90.7c0-3-.4-3.2-3.7-3.4v-1h13.4c6.4 0 10.9 1.9 10.9 6.9s-4.5 6.9-10.9 6.9h-5.8v9c0 2.9.6 3.1 3.7 3.3v1zm8.7-25.3a1 1 0 0 0-1.1 1.1v9.2h5.8c4.3 0 6.7-1.6 6.7-5.2s-2.4-5.1-6.7-5.1zM72 116.8c-1.2 2.9-3.1 4.3-5.5 4.3s-3.7-1-3.7-2.5a1.9 1.9 0 0 1 1.9-1.8c1.7 0 1.9 1.9 3.2 1.9s1.9-1.1 2.5-2.6l.9-2.3-5.1-13.5c-.9-2.4-1.3-3.2-3.1-3.4V96h8.5v.9c-2.7.2-2.6 1-1.8 3.4l3.4 8.9 3.5-8.9c1-2.4.3-3.2-1.9-3.4V96h6.9v.9c-1.5.2-2.2 1-3.1 3.4zm29.8-21a1.5 1.5 0 0 1-1.4 1.6c-1.2 0-1.3-1-2.3-1s-1.1.5-1.5 1.3a7.1 7.1 0 0 1 1.6 4.5c0 3.8-2.7 6.8-7.4 6.8-2.1 0-2.6-.5-3.9-.5s-2.1.6-2.1 1.3 1.7 1.5 7.6 1.7 7.8 1.6 7.8 4.4-3.3 5.2-8.6 5.2-8.9-1-8.9-4.2a3.6 3.6 0 0 1 2.1-3.1 3.1 3.1 0 0 1-2-3.1 3.2 3.2 0 0 1 2.9-3.4 6.3 6.3 0 0 1-2.3-5.1c0-3.9 2.7-6.8 7.4-6.8a8.4 8.4 0 0 1 4.7 1.3 5.2 5.2 0 0 1 4.2-2.6c1.2 0 2.1.6 2.1 1.7zm-9.9 19.1a29.9 29.9 0 0 1-5-.5 2.3 2.3 0 0 0-1.8 2.2c0 2 2.5 3 6.5 3s6.1-1.3 6.1-2.8-1.3-1.8-5.8-1.9zm2.8-12.7c0-3-.9-5.3-3.9-5.3s-3.9 2.3-3.9 5.3.8 5.3 3.9 5.3 3.9-2.2 3.9-5.3zm19.4 11.2v-1c2.1-.2 2.6-.6 2.6-2v-9.8c0-2.3-1.2-3.2-3-3.2a9.3 9.3 0 0 0-5.1 1.6v11.4c0 1.4.5 1.8 2.6 2v1h-8.6v-1c2.1-.2 2.6-.6 2.6-2v-10c0-.9-.3-1.2-1.2-1.2h-1.4v-.8l4.8-3h1.2v1.9a12.9 12.9 0 0 1 6-1.9c1.6 0 3.8.4 4.9 2.3a12.5 12.5 0 0 1 6.6-2.3c2.3 0 5.4.9 5.4 5.2v9.8c0 1.4.5 1.8 2.7 2v1h-8.6v-1c2-.2 2.5-.6 2.5-2v-9.8c0-2.3-1.2-3.2-3-3.2a9.2 9.2 0 0 0-5.2 1.7 7.7 7.7 0 0 1 .2 1.5v9.8c0 1.4.5 1.8 2.6 2v1zm27.6.5c-3.2 0-5.2-1.4-5.2-4.2s5-5.6 11.6-6.6v-2.4c0-2.8-.7-3.9-2.8-3.9s-3.6 1-4 2.9-1.1 1.8-2 1.8-1.5-.6-1.5-1.7 3-4.4 7.7-4.4 6 1.2 6 5.4v9.1q0 2.1 1.2 2.1a3.4 3.4 0 0 0 1.5-.4v1.4a5.6 5.6 0 0 1-3 .8 2.8 2.8 0 0 1-3.1-2.4 11.7 11.7 0 0 1-6.4 2.5zm6.4-9.4c-4.7.7-7.9 1.8-7.9 4.8s1.2 2.6 2.8 2.6a9.1 9.1 0 0 0 5.1-2zm8.1 8.9v-1c2.1-.2 2.6-.6 2.6-2V90.8c0-.9-.4-1.3-1.2-1.3h-1.4v-.7l4.8-3h1.2v24.6c0 1.4.5 1.8 2.6 2v1zm10.6 0v-1c2.2-.2 2.7-.6 2.7-2v-10c0-.9-.4-1.2-1.2-1.2h-1.5v-.8l4.9-3h1.2v15c0 1.4.5 1.8 2.5 2v1zm6.7-24.2a2.2 2.2 0 0 1-2.3 2.1 2.1 2.1 0 0 1-2.2-2.1 2.1 2.1 0 0 1 2.2-2.2 2.2 2.2 0 0 1 2.3 2.2zm22.5 15.4c0 5.3-3.6 9.4-9.1 9.4s-9.1-4.1-9.1-9.4a8.9 8.9 0 0 1 9.1-9.2c5.5 0 9.1 4 9.1 9.2zm-3.7 0c0-4.4-1.5-7.7-5.4-7.7s-5.4 3.3-5.4 7.7 1.5 7.9 5.4 7.9 5.4-3.4 5.4-7.9zm17.5 8.8v-1c2.2-.2 2.6-.6 2.6-2v-9.8c0-2.3-1.2-3.2-3-3.2a9 9 0 0 0-5 1.6v11.4c0 1.4.5 1.8 2.6 2v1h-8.6v-1c2.1-.2 2.6-.6 2.6-2v-10c0-.9-.3-1.2-1.2-1.2h-1.4v-.8l4.8-3h1.2v1.9a12.9 12.9 0 0 1 6-1.9c2.3 0 5.5.9 5.5 5.2v9.8c0 1.4.5 1.8 2.6 2v1zM31.9 147.1c-3.2 0-5.2-1.4-5.2-4.1s5-5.6 11.6-6.7V134c0-2.9-.7-3.9-2.8-3.9s-3.6.9-4 2.8-1.1 1.8-2 1.8-1.5-.5-1.5-1.7 3-4.4 7.7-4.4 6 1.2 6 5.4v9.1q0 2.1 1.2 2.1a3.4 3.4 0 0 0 1.5-.4v1.4a5.9 5.9 0 0 1-3.1.8 2.8 2.8 0 0 1-3-2.4 11 11 0 0 1-6.4 2.5zm6.4-9.4c-4.8.7-7.9 1.8-7.9 4.8s1.2 2.6 2.8 2.6a9.1 9.1 0 0 0 5.1-2zm19.5 8.9v-1c2.2-.2 2.6-.6 2.6-2v-9.8c0-2.3-1.2-3.2-3-3.2a9 9 0 0 0-5 1.6v11.4c0 1.4.5 1.8 2.6 2v1h-8.6v-1c2.1-.2 2.6-.6 2.6-2v-9.9c0-1-.4-1.3-1.2-1.3h-1.4v-.8l4.8-3h1.2v1.9a12.9 12.9 0 0 1 6-1.9c2.3 0 5.5.9 5.5 5.2v9.8c0 1.4.5 1.8 2.5 2v1z"/><path fill="#7f7f7f" d="M79.4 122l4.8-3h1.2v24.6c0 1.4.5 1.8 2.6 2v1a29.8 29.8 0 0 0-6 .6v-2a7.1 7.1 0 0 1-5.2 2c-5.1 0-8-4.1-8-9.3s2.9-9.3 8-9.3a6.7 6.7 0 0 1 5.2 2V124c0-.9-.4-1.2-1.3-1.2h-1.3zm2.6 10.4a5.2 5.2 0 0 0-4.3-2.1c-3.9 0-5.2 3.1-5.2 7.6s1.3 7.6 5.2 7.6a5.2 5.2 0 0 0 4.3-2.1zm39.4 12a11.6 11.6 0 0 1-8.1 2.8c-7.6 0-12.9-6-12.9-14.1s5.3-14.1 12.9-14.1a11.4 11.4 0 0 1 6.7 1.9l.6-1.3h1.1l2.4 7.5-.9.3c-2.4-4.4-5.5-6.8-9.6-6.8-6.2 0-9 5.3-9 12.5s2.8 12.4 8.8 12.4a9 9 0 0 0 6.8-2.8v-4.1c0-3-.7-3.2-3.7-3.4v-1h11.1v1c-2.9.2-3.6.4-3.6 3.4v8h-1.2zm13.2 2.7c-3.2 0-5.2-1.4-5.2-4.1s4.9-5.6 11.5-6.7V134c0-2.9-.6-3.9-2.8-3.9s-3.5.9-4 2.8-1.1 1.8-1.9 1.8-1.5-.5-1.5-1.7 2.9-4.4 7.6-4.4 6 1.2 6 5.4v9.1c0 1.4.4 2.1 1.3 2.1a3 3 0 0 0 1.4-.4v1.4a5.3 5.3 0 0 1-3 .8 2.7 2.7 0 0 1-3-2.4 11.6 11.6 0 0 1-6.4 2.5zm6.3-9.4c-4.7.7-7.8 1.8-7.8 4.8a2.4 2.4 0 0 0 2.7 2.6 9.1 9.1 0 0 0 5.1-2zm8.1 8.9v-1c2.1-.2 2.6-.6 2.6-2V124c0-.9-.3-1.2-1.2-1.2H149v-.8l4.8-3h1.2v24.6c0 1.4.5 1.8 2.6 2v1zm16.2.5c-3.2 0-5.2-1.4-5.2-4.1s5-5.6 11.6-6.7V134c0-2.9-.7-3.9-2.8-3.9s-3.6.9-4 2.8-1.1 1.8-2 1.8-1.5-.5-1.5-1.7 3-4.4 7.7-4.4 6 1.2 6 5.4v9.1q0 2.1 1.2 2.1a3.4 3.4 0 0 0 1.5-.4v1.4a5.7 5.7 0 0 1-3.1.8 2.8 2.8 0 0 1-3-2.4 11 11 0 0 1-6.4 2.5zm6.4-9.4c-4.8.7-7.9 1.8-7.9 4.8s1.2 2.6 2.8 2.6a9.1 9.1 0 0 0 5.1-2zm18.4 8.6a9.5 9.5 0 0 1-3.5.7c-2.6 0-4.6-1-4.6-4.5v-11.7h-2.5v-.9c3-1 4.2-3.1 4.7-6.4h1.2v5.7h4.7v1.6h-4.7v11.7c0 1.9.7 2.7 2.3 2.7a6.7 6.7 0 0 0 2.4-.4zm6.1-10.3c0 .6-.1 1.2-.1 1.9 0 4.4 1.6 7.7 6.1 7.7 2.5 0 4.6-1.7 5.8-4.5l1.4.7c-1.3 3.2-3.8 5.4-7.5 5.4-6.1 0-9.5-4-9.5-9.3s3.3-9.3 8.8-9.3 7.6 2.7 7.6 7.4zm9.1-1.5c0-2.9-1.7-4.4-4.1-4.4s-4.3 1.7-4.8 4.4zm12 12.6c-3.2 0-5.2-1.4-5.2-4.1s4.9-5.6 11.5-6.7V134c0-2.9-.6-3.9-2.7-3.9s-3.6.9-4.1 2.8-1 1.8-1.9 1.8-1.5-.5-1.5-1.7 2.9-4.4 7.6-4.4 6.1 1.2 6.1 5.4v9.1q0 2.1 1.2 2.1a2.7 2.7 0 0 0 1.4-.4v1.4a5.3 5.3 0 0 1-3 .8 2.8 2.8 0 0 1-3-2.4 11.3 11.3 0 0 1-6.4 2.5zm6.3-9.4c-4.7.7-7.8 1.8-7.8 4.8a2.4 2.4 0 0 0 2.7 2.6 8.6 8.6 0 0 0 5.1-2z"/></svg>