<svg id="Layer_1" data-name="Layer 1" xmlns="http://www.w3.org/2000/svg" width="256" height="256" viewBox="0 0 256 256"><circle cx="128" cy="128" r="128" fill="#a1d0c7" stroke="#7f7f7f" stroke-miterlimit="10" stroke-width="0.22"/><path d="M131.6,94.2s16.6-56.3,61.5-45a36.5,36.5,0,0,1,20.8,14.4,45.9,45.9,0,0,1,8.2,21.3,11.1,11.1,0,0,1,.2,1.9c.9,5.7,4.5,43.6-48.9,66.5,0,0-71.9,27.5-74.9,59.8,0,.6-.1,1.1-.1,1.7-.4,3.5-1,19.6,19,25.2,0,0-33.2,0-21.1-37.7a2.4,2.4,0,0,0,.2-.8c.8-2.3,9.1-25.1,64.9-54.6,0,0,59.3-30,41.9-67.4S144.9,64.9,131.6,94.2Z" fill="#d8d3cb"/><path d="M131.3,86.3S114.6,42.2,75.7,43.6c0,0-41.9.2-35.6,52.5a96.4,96.4,0,0,0,15.8,42.3,135.9,135.9,0,0,0,50.7,44.5s-59.8-39.8-53-91.5c0,0,7-41.8,46.7-33.3C100.3,58.1,118.1,61.8,131.3,86.3Z" fill="#d8d3cb"/><path d="M51.7,129.2c.8,2.3,1.8,3.3,4,3.5v1.2H43.3v-1.2c3.6-.2,4.4-.9,3.7-2.9l-2.4-6.1h-13l-2.3,6.1c-.7,1.8.4,2.7,4,2.9v1.2H22.7v-1.2a4.4,4.4,0,0,0,4.3-3.2l11.1-29h2.7Zm-19.3-7.6H43.8l-5.8-15Z" fill="#7f7f7f"/><path d="M56.1,142.7v-1.2c2.7-.2,3.3-.7,3.3-2.4V117.9c0-1.1-.5-1.6-1.5-1.6H56v-.9l6.1-3.7h1.5v2.4a8.6,8.6,0,0,1,6.3-2.4c6.4,0,10,5,10,11.4s-3.6,11.5-10.3,11.5a8.2,8.2,0,0,1-6-2.2v6.7c0,1.7.6,2.2,3.2,2.4v1.2ZM63.6,130a6.3,6.3,0,0,0,5.3,2.6c4.8,0,6.4-3.9,6.4-9.5s-1.6-9.4-6.4-9.4a6.3,6.3,0,0,0-5.3,2.6Z" fill="#7f7f7f"/><path d="M97,133.9v-1.2c2.6-.2,3.2-.7,3.2-2.5V118.1c0-2.8-1.5-4-3.8-4a11,11,0,0,0-6.2,2.1v14c0,1.8.7,2.3,3.2,2.5v1.2H82.8v-1.2c2.6-.2,3.2-.7,3.2-2.5V106c0-1.1-.4-1.6-1.4-1.6H82.8v-.9l6-3.7h1.4V114a16.1,16.1,0,0,1,7.4-2.3c2.9,0,6.8,1.1,6.8,6.4v12.1c0,1.8.6,2.3,3.2,2.5v1.2Z" fill="#7f7f7f"/><path d="M121.3,114.8a4.9,4.9,0,0,0-3.7,2.5v12.9c0,1.8.6,2.3,3.2,2.5v1.2H110.1v-1.2c2.6-.2,3.3-.7,3.3-2.5V117.9c0-1.1-.5-1.6-1.5-1.6h-1.8v-.9l6-3.7h1.5v3.1a8.5,8.5,0,0,1,6.3-3.1c2.6,0,3.7,1.3,3.7,2.9a2.2,2.2,0,0,1-2.3,2.4C123.2,117,122.9,114.8,121.3,114.8Z" fill="#7f7f7f"/><path d="M152.2,123.1c0,6.6-4.5,11.5-11.3,11.5s-11.2-4.9-11.2-11.5,4.5-11.4,11.2-11.4S152.2,116.6,152.2,123.1Zm-4.6,0c0-5.5-1.9-9.6-6.7-9.6s-6.6,4.1-6.6,9.6,1.8,9.7,6.6,9.7S147.6,128.7,147.6,123.1Z" fill="#7f7f7f"/><path d="M168.6,103.5l6-3.7H176v30.4c0,1.8.7,2.3,3.3,2.5v1.2a47.6,47.6,0,0,0-7.5.7v-2.4a8.3,8.3,0,0,1-6.3,2.4c-6.4,0-10-5-10-11.5s3.6-11.4,10-11.4a8.3,8.3,0,0,1,6.3,2.4V106c0-1.1-.4-1.6-1.5-1.6h-1.7Zm3.2,12.8a6.3,6.3,0,0,0-5.3-2.6c-4.7,0-6.4,3.9-6.4,9.4s1.7,9.5,6.4,9.5a6.3,6.3,0,0,0,5.3-2.6Z" fill="#7f7f7f"/><path d="M181.8,133.9v-1.2c2.6-.2,3.2-.7,3.2-2.5V117.9c0-1.1-.4-1.6-1.5-1.6h-1.7v-.9l5.9-3.7h1.5v18.5c0,1.8.6,2.3,3.2,2.5v1.2ZM190,104a2.8,2.8,0,0,1-5.6,0,2.8,2.8,0,0,1,5.6,0Z" fill="#7f7f7f"/><path d="M207.7,133.5a9.7,9.7,0,0,1-4.3.9c-3.2,0-5.6-1.2-5.6-5.5V114.3h-3.2v-1c3.7-1.3,5.2-3.9,5.9-8H202v7.1h5.7v1.9H202v14.6c0,2.3.8,3.4,2.7,3.4a7.7,7.7,0,0,0,3-.6Z" fill="#7f7f7f"/><path d="M215.3,120.8c0,.8-.1,1.6-.1,2.3,0,5.6,2,9.5,7.5,9.5,3.1,0,5.7-2.1,7.2-5.5l1.7.9c-1.6,3.9-4.7,6.6-9.2,6.6-7.7,0-11.8-4.9-11.8-11.5s4.1-11.4,10.8-11.4,9.4,3.3,9.4,9.1Zm11.3-1.9c0-3.5-2.2-5.4-5.1-5.4s-5.3,2.1-6,5.4Z" fill="#7f7f7f"/></svg>