<svg xmlns="http://www.w3.org/2000/svg" width="256" height="256" viewBox="0 0 256 256"><circle cx="128" cy="128" r="128" fill="#a1d0c7" stroke="#7f7f7f" stroke-miterlimit="10" stroke-width=".22"/><path fill="#d8d3cb" d="M161.7 181c14.5-9.2 9.5-21.8 9.5-21.8-.1-2.3 1.8-1.1 1.8-1.1 5 4.8 14.2 8.3 17.4 9.4l2.2 1c5.4 3 14.7 3.5 19.5 3.5a7.7 7.7 0 0 1 5 2 19.5 19.5 0 0 0 8.7 4.5s2.9.5 1.1-2.1-14.9-10.9-23.4-9.7a6 6 0 0 1-4.3-1.1 17.2 17.2 0 0 0-8.4-3.6c-6.2-.6-16.2-8.3-20-15.9s-13.7-12.5-18.3-12.1c0 0-3.1.2-1.1-2.5s24-3.6 24-3.6 1.3.5 11.2-4.9 14-8.6 14-8.6 10-9.7 21.7-11.1c0 0 2-.5.8-1.8s-9.9-1.4-26.4 10c0 0-3.1 2.5-10.9 5.4a54.4 54.4 0 0 0-10.6 5.4 3.8 3.8 0 0 1-2.9.6c-4-.9-15-2.5-23.8 1.9 0 0-1.3-.3.4-2s6.4-3.3 10.3-31.2c3.5-25.8 5.9-47.6 6.2-50.7a1.7 1.7 0 0 0-.1-1c-.2-.5-.6-1.3-1.6-.8a2.3 2.3 0 0 0-1.1 1.7c-1.1 7.7-9.7 67.1-17.6 74.2 0 0-1.1 2.9-1.1-4.9s-5.9-18.8-12.1-32.2c0 0-.6-10.9-7.6-24.4 0 0-1.9-10.8-10.5-28.4l-.5-.6c-.3-.1-.6-.2-.9.1a1.3 1.3 0 0 0-.5 1.3c1.5 5.1 12.3 43.9 11.8 45.6s4.8 14.5 5.7 20.2a8.8 8.8 0 0 0 1.7 4.1c2.2 2.8 5.7 8.2 5.4 14.1-.6 8.6-8.3 1.4-8.3 1.4s-4.1-2.5-5.8 3.5c0 0 .5 2.8.1 3.2a1.1 1.1 0 0 1-1.1.7c-.5.1-2.8-1.4-2.8-1.4-6.2-1-5.6 3.7-5.6 3.7s3.1 10-4.9 6.9c-5.5-2.2-8.9-7.6-10.4-10.8a8 8 0 0 0-3-3.3c-4.9-3.3-14.3-13.5-15.9-13.7s-32.3-26.5-36.3-30a1.2 1.2 0 0 0-1.4-.2.6.6 0 0 0-.4.8.9.9 0 0 0 .3.7C53.1 86.7 62.1 93 62.1 93c9.3 12 18.9 17.2 18.9 17.2 9.5 11.3 17 21.3 24.1 24.6s3.9 3.1 3.9 3.1c-9.7 4.2-67.2-13.3-74.7-15.6a2.4 2.4 0 0 0-2 .3c-.8.7-.3 1.4.1 1.9l.8.5c3 1 23.7 8.1 48.6 15.8 26.9 8.3 30.4 4.7 32.6 3.9s2 .5 2 .5c-7.7 6.1-10.9 16.8-11.8 20.8a3.6 3.6 0 0 1-1.7 2.3 46.4 46.4 0 0 0-9.5 7.4c-5.9 5.8-9.4 7.5-9.4 7.5-17.4 10.1-21 18.1-20.3 19.7s1.9.1 1.9.1c6.3-10.1 19.3-15 19.3-15s4.7-2.3 13.8-9 9.1-8.1 9.1-8.1 10.3-19.6 13.5-20.2 1.8 2.1 1.8 2.1c-2.4 4-2.1 14.9 3.1 21.6s8 19 6 24.9a16.9 16.9 0 0 0-.4 9.1 5.4 5.4 0 0 1-.8 4.3c-4.6 7.2-2.5 22.8-1.1 25.4s2.4-.1 2.4-.1a19.1 19.1 0 0 0-.4-9.8 7.4 7.4 0 0 1 .3-5.3c2.1-4.4 5.6-13 5.1-19.3v-2.3c.4-3.4 1.1-13.2-1.1-19.8 0 0-.3-2.2 1.7-1.1 0 0 9.3 9.8 23.8.6"/><path fill="#7f7f7f" d="M68 129.2c.9 2.3 1.8 3.3 4.1 3.5v1.2H59.6v-1.2c3.6-.2 4.4-.9 3.7-2.9l-2.4-6.1h-13l-2.3 6.1c-.7 1.8.4 2.7 4.1 2.9v1.2H39v-1.2a4.4 4.4 0 0 0 4.3-3.2l11.1-29h2.7zm-19.3-7.7h11.4l-5.8-14.9zm35.2-6.7a5 5 0 0 0-3.8 2.5v12.9c0 1.8.7 2.3 3.2 2.5v1.2H72.7v-1.2c2.6-.2 3.2-.7 3.2-2.5v-12.3c0-1.1-.4-1.6-1.5-1.6h-1.7v-.9l5.9-3.7h1.5v3.1a8.7 8.7 0 0 1 6.4-3.1c2.6 0 3.7 1.3 3.7 2.9a2.3 2.3 0 0 1-2.4 2.4c-2 0-2.3-2.2-3.9-2.2zm14.8 19.7c-4 0-6.4-1.7-6.4-5.1 0-5.1 6.1-6.9 14.2-8.2v-2.9c0-3.5-.7-4.8-3.4-4.8s-4.4 1.1-5 3.5-1.3 2.3-2.3 2.3-1.9-.8-1.9-2.2 3.6-5.4 9.4-5.4c4.1 0 7.5 1.4 7.5 6.7v11.2c0 1.8.5 2.6 1.5 2.6a3.5 3.5 0 0 0 1.8-.5v1.7a6.2 6.2 0 0 1-3.7 1 3.5 3.5 0 0 1-3.8-2.9c-2.2 1.5-5 3-7.9 3zm7.8-11.5c-5.8.8-9.6 2.2-9.6 5.9a3 3 0 0 0 3.3 3.2 10.7 10.7 0 0 0 6.3-2.5zm25.1-6c-.4-2.1-1.5-3.5-4-3.5-4.5 0-6 4.1-6 9.6s2.2 9.5 7 9.5 5.5-2.1 6.9-5.6l1.8 1c-1.7 3.9-4.4 6.6-9.1 6.6-7.1 0-11.2-4.9-11.2-11.5s4.5-11.4 10.6-11.4 8.5 2.7 8.5 5.4a2.1 2.1 0 0 1-2.2 2.2c-1.1 0-2-.7-2.3-2.3zm21.8 16.9v-1.2c2.6-.2 3.2-.7 3.2-2.5v-12.1c0-2.8-1.5-4-3.7-4a10.8 10.8 0 0 0-6.2 2.1v14c0 1.8.6 2.3 3.2 2.5v1.2h-10.7v-1.2c2.7-.2 3.3-.7 3.3-2.5V106c0-1.1-.5-1.6-1.5-1.6h-1.8v-.9l6-3.7h1.5V114a15.8 15.8 0 0 1 7.4-2.3c2.8 0 6.8 1.1 6.8 6.4v12.1c0 1.8.6 2.3 3.2 2.5v1.2zm27.3 0v-1.2c2.7-.2 3.2-.7 3.2-2.5v-12.1c0-2.8-1.4-4-3.7-4a11 11 0 0 0-6.2 2.1v14c0 1.8.6 2.3 3.2 2.5v1.2h-10.6v-1.2c2.6-.2 3.2-.7 3.2-2.5v-12.3c0-1.1-.4-1.6-1.5-1.6h-1.7v-.9l5.9-3.7h1.5v2.3a16.1 16.1 0 0 1 7.4-2.3c2.8 0 6.8 1.1 6.8 6.4v12.1c0 1.8.6 2.3 3.2 2.5v1.2zm18.3-13.1a18.5 18.5 0 0 0-.1 2.3c0 5.6 2 9.5 7.4 9.5 3.2 0 5.8-2.1 7.3-5.5l1.7.9c-1.6 3.9-4.7 6.6-9.2 6.6-7.7 0-11.8-4.9-11.8-11.5s4.1-11.4 10.8-11.4 9.4 3.3 9.4 9.1zm11.3-1.9c0-3.5-2.2-5.4-5.1-5.4s-5.3 2.1-6 5.4z"/></svg>