<svg xmlns="http://www.w3.org/2000/svg" width="256" height="256" viewBox="0 0 256 256"><circle cx="128" cy="128" r="128" fill="#a1d0c7" stroke="#7f7f7f" stroke-miterlimit="10" stroke-width=".22"/><path fill="#d8d3cb" d="M161.7 181c14.5-9.2 9.5-21.8 9.5-21.8-.1-2.3 1.8-1.1 1.8-1.1 5 4.8 14.2 8.3 17.4 9.4l2.2 1c5.4 3 14.7 3.5 19.5 3.5a7.7 7.7 0 0 1 5 2 19.5 19.5 0 0 0 8.7 4.5s2.9.5 1.1-2.1-14.9-10.9-23.4-9.7a6 6 0 0 1-4.3-1.1 17.2 17.2 0 0 0-8.4-3.6c-6.2-.6-16.2-8.3-20-15.9s-13.7-12.5-18.3-12.1c0 0-3.1.2-1.1-2.5s24-3.6 24-3.6 1.3.5 11.2-4.9 14-8.6 14-8.6 10-9.7 21.7-11.1c0 0 2-.5.8-1.8s-9.9-1.4-26.4 10c0 0-3.1 2.5-10.9 5.4a54.4 54.4 0 0 0-10.6 5.4 3.8 3.8 0 0 1-2.9.6c-4-.9-15-2.5-23.8 1.9 0 0-1.3-.3.4-2s6.4-3.3 10.3-31.2c3.5-25.8 5.9-47.6 6.2-50.7a1.7 1.7 0 0 0-.1-1c-.2-.5-.6-1.3-1.6-.8a2.3 2.3 0 0 0-1.1 1.7c-1.1 7.7-9.7 67.1-17.6 74.2 0 0-1.1 2.9-1.1-4.9s-5.9-18.8-12.1-32.2c0 0-.6-10.9-7.6-24.4 0 0-1.9-10.8-10.5-28.4l-.5-.6c-.3-.1-.6-.2-.9.1a1.3 1.3 0 0 0-.5 1.3c1.5 5.1 12.3 43.9 11.8 45.6s4.8 14.5 5.7 20.2a8.8 8.8 0 0 0 1.7 4.1c2.2 2.8 5.7 8.2 5.4 14.1-.6 8.6-8.3 1.4-8.3 1.4s-4.1-2.5-5.8 3.5c0 0 .5 2.8.1 3.2a1.1 1.1 0 0 1-1.1.7c-.5.1-2.8-1.4-2.8-1.4-6.2-1-5.6 3.7-5.6 3.7s3.1 10-4.9 6.9c-5.5-2.2-8.9-7.6-10.4-10.8a8 8 0 0 0-3-3.3c-4.9-3.3-14.3-13.5-15.9-13.7s-32.3-26.5-36.3-30a1.2 1.2 0 0 0-1.4-.2.6.6 0 0 0-.4.8.9.9 0 0 0 .3.7C53.1 86.7 62.1 93 62.1 93c9.3 12 18.9 17.2 18.9 17.2 9.5 11.3 17 21.3 24.1 24.6s3.9 3.1 3.9 3.1c-9.7 4.2-67.2-13.3-74.7-15.6a2.4 2.4 0 0 0-2 .3c-.8.7-.3 1.4.1 1.9l.8.5c3 1 23.7 8.1 48.6 15.8 26.9 8.3 30.4 4.7 32.6 3.9s2 .5 2 .5c-7.7 6.1-10.9 16.8-11.8 20.8a3.6 3.6 0 0 1-1.7 2.3 46.4 46.4 0 0 0-9.5 7.4c-5.9 5.8-9.4 7.5-9.4 7.5-17.4 10.1-21 18.1-20.3 19.7s1.9.1 1.9.1c6.3-10.1 19.3-15 19.3-15s4.7-2.3 13.8-9 9.1-8.1 9.1-8.1 10.3-19.6 13.5-20.2 1.8 2.1 1.8 2.1c-2.4 4-2.1 14.9 3.1 21.6s8 19 6 24.9a16.9 16.9 0 0 0-.4 9.1 5.4 5.4 0 0 1-.8 4.3c-4.6 7.2-2.5 22.8-1.1 25.4s2.4-.1 2.4-.1a19.1 19.1 0 0 0-.4-9.8 7.4 7.4 0 0 1 .3-5.3c2.1-4.4 5.6-13 5.1-19.3v-2.3c.4-3.4 1.1-13.2-1.1-19.8 0 0-.3-2.2 1.7-1.1 0 0 9.3 9.8 23.8.6"/></svg>