<svg id="Layer_1" data-name="Layer 1" xmlns="http://www.w3.org/2000/svg" width="256" height="256" viewBox="0 0 256 256"><circle cx="128" cy="128" r="127.3" fill="#a1d0c7" stroke="#7f7f7f" stroke-miterlimit="10" stroke-width="0.22"/><path d="M51.7,126.9l-1.2,29s.7,18.8-32.1,20.4c0,0,155,4.9,192.7-2.5,0,0,10.8-2.4,10.6-19.4,0,0-.4-17.2-7.7-24.6a1.9,1.9,0,0,0-2.3-1.4c-1.7.5-1.6,3-1.6,3s.3,3,2.9,2.4l.6-.2h0s3.9,3.1,5.1,15.9c0,0-23.1,8.5-100.4,1.4l-.2-5h-1.6v.3s-14-1.5-58.4-9.6v-5.8H56.4V127l-3.1-.4Z" fill="#d8d3cb"/><path d="M141.8,158.5l-.6-107.3a1.3,1.3,0,0,1,1.8,0l1.9,107.7Z" fill="#d8d3cb"/><polygon points="139.9 69 143.5 68.1 144.8 68.5 144.8 73.6 143.2 74.3 141.4 74.6 139.9 74.2 139.9 69" fill="#d8d3cb"/><path d="M95.6,90,201.2,62.3l.2,1.4L95.8,91A.9.9,0,0,1,95.6,90Z" fill="#d8d3cb"/><ellipse cx="201.3" cy="63" rx="0.4" ry="0.7" transform="translate(-8.3 39) rotate(-10.9)" fill="#d8d3cb"/><path d="M98.8,90.1s-13,15-3.2,57c0,0,2.4-4.7,18.2-6.9,0,0,5.4-4.5,21.2-4.6a79.2,79.2,0,0,1,25.1.4s18.8,1.3,29.4,3.4c0,0-7.2-41.8,6.4-74.8Z" fill="#d8d3cb"/><polygon points="140.5 72 61.3 137.4 62.6 137.6 141.4 72.3 140.5 72" fill="#d8d3cb"/><polygon points="143 74.1 166.5 158.3 167.2 158 143.4 74 143 74.1" fill="#d8d3cb"/><polygon points="146.9 134.6 147.8 153.7 148.4 153.7 147.1 131.2 146.9 134.6" fill="#d8d3cb"/><polygon points="148.4 134.6 150.7 158.6 151.1 158.6 148.6 132.4 148.4 134.6" fill="#d8d3cb"/><polygon points="140.5 134.7 139.9 158.2 140.3 157.1 141 132.8 140.5 134.7" fill="#d8d3cb"/><polygon points="136.3 135.2 134 157.8 134.5 157.6 136.8 134.1 136.3 135.2" fill="#d8d3cb"/><polygon points="164.6 136.1 171.6 156.6 172 156.4 164 133.2 164.6 136.1" fill="#d8d3cb"/><polygon points="168.8 136.5 176.5 156.1 176.9 156 168.3 134.5 168.8 136.5" fill="#d8d3cb"/><polygon points="172.4 136.9 181.1 155.9 181.5 155.8 171.9 134.9 172.4 136.9" fill="#d8d3cb"/><polygon points="176 137.3 194.2 154 194.4 153.7 175.9 136.8 176 137.3" fill="#d8d3cb"/><polygon points="167.6 136.5 193.4 154.1 193.6 153.8 167.4 136 167.6 136.5" fill="#d8d3cb"/><polygon points="184.8 138.4 194.6 153.9 194.8 153.6 185 138 184.8 138.4" fill="#d8d3cb"/><polygon points="187.8 126.8 198.6 153.5 198.9 153.1 187.5 124.6 187.8 126.8" fill="#d8d3cb"/><polygon points="199.7 154 195.7 64.6 196.3 64.6 200.1 154.1 199.7 154" fill="#d8d3cb"/><path d="M23.3,115.1c0,6.3-3.1,9-7.7,9s-5.3-2-5.3-3.4a1.9,1.9,0,0,1,2-2c2.6,0,1.9,3.5,4,3.5s3.2-1.5,3.2-6.6V93.5c0-3-.7-3.2-3.8-3.4v-1H27.1v1c-3.2.2-3.8.4-3.8,3.4Z" fill="#7f7f7f"/><path d="M34.2,116.7c-3.2,0-5.2-1.4-5.2-4.1s5-5.6,11.6-6.7v-2.3c0-2.9-.6-3.9-2.8-3.9s-3.6.9-4,2.8-1.1,1.8-2,1.8-1.5-.6-1.5-1.7,3-4.4,7.7-4.4,6,1.2,6,5.4v9.1q0,2.1,1.2,2.1a3.4,3.4,0,0,0,1.5-.4v1.4a5.6,5.6,0,0,1-3,.8,2.7,2.7,0,0,1-3-2.4C38.9,115.4,36.6,116.7,34.2,116.7Zm6.4-9.4c-4.7.7-7.9,1.8-7.9,4.8s1.2,2.6,2.8,2.6a9.1,9.1,0,0,0,5.1-2Z" fill="#7f7f7f"/><path d="M64.6,111c0,3.5-3,5.8-6.9,5.8a11.1,11.1,0,0,1-6.2-1.9l-.4,1.3h-1l-1.4-5.9.8-.2c2.4,3.6,4.9,5.2,8.1,5.2s4.1-1,4.1-3.2-2.5-2.8-5.5-3.5-6.9-1.7-6.9-5.4,2.6-5,6.3-5a8.4,8.4,0,0,1,5.3,1.5l.4-.9h1l1.1,4.9-.9.4c-1.8-3.3-4-4.4-6.7-4.4s-3.5,1-3.5,2.5,2.3,2.5,5.3,3.1S64.6,107.2,64.6,111Z" fill="#7f7f7f"/><path d="M85.1,107.5c0,5.2-3.6,9.3-9.1,9.3a8.9,8.9,0,0,1-9.1-9.3c0-5.3,3.7-9.3,9.1-9.3S85.1,102.2,85.1,107.5Zm-3.7,0c0-4.5-1.5-7.8-5.4-7.8s-5.3,3.3-5.3,7.8,1.4,7.8,5.3,7.8S81.4,111.9,81.4,107.5Z" fill="#7f7f7f"/><path d="M99,116.2v-1c2.1-.2,2.5-.6,2.5-2v-9.8c0-2.3-1.1-3.2-3-3.2a9.3,9.3,0,0,0-5,1.6v11.4c0,1.4.5,1.8,2.6,2v1H87.5v-1c2.1-.2,2.6-.6,2.6-2v-10c0-.9-.3-1.2-1.2-1.2H87.5v-.8l4.8-3h1.2v1.9a12.9,12.9,0,0,1,6-1.9c2.3,0,5.5.9,5.5,5.2v9.8c0,1.4.5,1.8,2.6,2v1Z" fill="#7f7f7f"/><path d="M124.8,116.7c-3.2,0-5.2-1.4-5.2-4.1s5-5.6,11.6-6.7v-2.3c0-2.9-.6-3.9-2.8-3.9s-3.6.9-4,2.8-1.1,1.8-2,1.8-1.5-.6-1.5-1.7,3-4.4,7.7-4.4,6,1.2,6,5.4v9.1q0,2.1,1.2,2.1a3.4,3.4,0,0,0,1.5-.4v1.4a5.6,5.6,0,0,1-3,.8,2.9,2.9,0,0,1-3.1-2.4A11.7,11.7,0,0,1,124.8,116.7Zm6.4-9.4c-4.7.7-7.9,1.8-7.9,4.8s1.2,2.6,2.8,2.6a9.1,9.1,0,0,0,5.1-2Z" fill="#7f7f7f"/><path d="M150.7,116.2v-1c2.2-.2,2.6-.6,2.6-2v-9.8c0-2.3-1.2-3.2-3-3.2a9,9,0,0,0-5,1.6v11.4c0,1.4.5,1.8,2.6,2v1h-8.6v-1c2.1-.2,2.6-.6,2.6-2v-10c0-.9-.3-1.2-1.2-1.2h-1.4v-.8l4.8-3h1.2v1.9a12.9,12.9,0,0,1,6-1.9c2.3,0,5.5.9,5.5,5.2v9.8c0,1.4.5,1.8,2.6,2v1Z" fill="#7f7f7f"/><path d="M172.3,91.6l4.8-3h1.2v24.6c0,1.4.5,1.8,2.6,2v1a30.5,30.5,0,0,0-6,.6v-2a7.1,7.1,0,0,1-5.2,2c-5.1,0-8-4.1-8-9.3s2.9-9.3,8-9.3a6.7,6.7,0,0,1,5.2,2V93.6c0-.9-.4-1.2-1.3-1.2h-1.3Zm2.6,10.4a5.3,5.3,0,0,0-4.3-2.2c-3.9,0-5.2,3.2-5.2,7.7s1.3,7.6,5.2,7.6a5.2,5.2,0,0,0,4.3-2.1Z" fill="#7f7f7f"/><path d="M202.9,115.9a9.5,9.5,0,0,1-3.5.7c-2.6,0-4.5-1-4.5-4.5V100.3h-2.6v-.8c3-1,4.2-3.1,4.8-6.5h1.2v5.8h4.6v1.5h-4.6v11.8c0,1.9.6,2.7,2.2,2.7a6.7,6.7,0,0,0,2.4-.4Z" fill="#7f7f7f"/><path d="M216.4,116.2v-1c2.1-.2,2.6-.6,2.6-2v-9.8c0-2.3-1.2-3.2-3-3.2a9.6,9.6,0,0,0-5.1,1.6v11.4c0,1.4.5,1.8,2.6,2v1h-8.6v-1c2.1-.2,2.6-.6,2.6-2V93.6c0-.9-.3-1.2-1.1-1.2h-1.5v-.8l4.9-3h1.1v11.5a13.3,13.3,0,0,1,6-1.9c2.3,0,5.5.9,5.5,5.2v9.8c0,1.4.5,1.8,2.6,2v1Z" fill="#7f7f7f"/><path d="M231.1,105.6v1.9c0,4.4,1.5,7.6,6,7.6,2.5,0,4.7-1.7,5.8-4.4l1.5.7c-1.4,3.2-3.9,5.4-7.5,5.4-6.2,0-9.5-4.1-9.5-9.3s3.2-9.3,8.7-9.3,7.6,2.6,7.6,7.4Zm9.2-1.5c0-2.9-1.8-4.4-4.2-4.4s-4.3,1.7-4.8,4.4Z" fill="#7f7f7f"/><path d="M65.1,145.6c.7,1.8,1.5,2.6,3.3,2.8v1H58.3v-1c2.9-.2,3.6-.7,3-2.4l-1.9-4.9H48.8L47,146c-.6,1.5.3,2.2,3.3,2.4v1H41.7v-1a3.7,3.7,0,0,0,3.5-2.6l8.9-23.4h2.2Zm-15.6-6.2h9.2l-4.6-12.1Z" fill="#7f7f7f"/><path d="M78,133.9a4.1,4.1,0,0,0-3.1,2v10.5c0,1.4.5,1.8,2.6,2v1H68.9v-1c2.1-.2,2.6-.6,2.6-2v-9.9c0-1-.3-1.3-1.2-1.3H68.9v-.8l4.8-3h1.2v2.5a7.1,7.1,0,0,1,5.1-2.5c2.2,0,3,1.1,3,2.4a1.8,1.8,0,0,1-1.9,1.9C79.5,135.7,79.2,133.9,78,133.9Z" fill="#7f7f7f"/><path d="M103.9,131.9a1.5,1.5,0,0,1-1.5,1.5c-1.2,0-1.3-1-2.2-1s-1.2.5-1.6,1.4a6.1,6.1,0,0,1,1.6,4.4c0,3.9-2.7,6.8-7.4,6.8-2.1,0-2.6-.5-3.9-.5s-2,.6-2,1.3,1.6,1.5,7.5,1.7,7.8,1.7,7.8,4.4-3.3,5.2-8.6,5.2-8.8-1-8.8-4.2a3.5,3.5,0,0,1,2.1-3.1,2.9,2.9,0,0,1-2.1-3.1,3.2,3.2,0,0,1,2.9-3.4,6.3,6.3,0,0,1-2.3-5.1c0-3.9,2.7-6.8,7.4-6.8a7.5,7.5,0,0,1,4.7,1.4,5.6,5.6,0,0,1,4.2-2.7C102.9,130.1,103.9,130.7,103.9,131.9Zm-10,19a31.1,31.1,0,0,1-5-.5c-1.2.5-1.8,1.2-1.8,2.2s2.5,3,6.5,3,6.2-1.3,6.2-2.8S98.5,151,93.9,150.9Zm2.8-12.7c0-3-.9-5.3-3.9-5.3s-3.9,2.3-3.9,5.3.9,5.3,3.9,5.3S96.7,141.3,96.7,138.2Z" fill="#7f7f7f"/><path d="M122.6,140.7c0,5.3-3.7,9.3-9.1,9.3s-9.1-4-9.1-9.3,3.6-9.3,9.1-9.3S122.6,135.4,122.6,140.7Zm-3.7,0c0-4.5-1.5-7.8-5.4-7.8s-5.4,3.3-5.4,7.8,1.5,7.8,5.4,7.8S118.9,145.1,118.9,140.7Z" fill="#7f7f7f"/><path d="M136.4,149.4v-1c2.1-.2,2.6-.6,2.6-2v-9.8c0-2.3-1.2-3.2-3-3.2a9,9,0,0,0-5,1.6v11.4c0,1.4.5,1.8,2.6,2v1h-8.7v-1c2.2-.2,2.7-.6,2.7-2v-9.9c0-1-.4-1.3-1.2-1.3h-1.5v-.8l4.9-3H131v1.9a12.5,12.5,0,0,1,6-1.9c2.2,0,5.4.9,5.4,5.2v9.8c0,1.4.5,1.8,2.6,2v1Z" fill="#7f7f7f"/><path d="M152.6,149.9c-3.2,0-5.2-1.4-5.2-4.1,0-4.2,4.9-5.6,11.5-6.7v-2.3c0-2.9-.6-3.9-2.7-3.9s-3.6.9-4.1,2.8-1,1.8-1.9,1.8-1.5-.5-1.5-1.7,2.9-4.4,7.6-4.4,6.1,1.2,6.1,5.4v9.1q0,2.1,1.2,2.1a2.7,2.7,0,0,0,1.4-.4V149a5.3,5.3,0,0,1-3,.8,2.8,2.8,0,0,1-3-2.4A11.3,11.3,0,0,1,152.6,149.9Zm6.3-9.3c-4.7.6-7.8,1.7-7.8,4.7a2.4,2.4,0,0,0,2.7,2.6,8.6,8.6,0,0,0,5.1-2Z" fill="#7f7f7f"/><path d="M178.2,134.4l4.8-3h1.2v15c0,1.4.5,1.8,2.6,2v1a30.5,30.5,0,0,0-6,.6v-1.9a12.9,12.9,0,0,1-6,1.9c-2.3,0-5.5-.9-5.5-5.2v-8.3c0-1-.3-1.3-1.2-1.3h-1.4v-.8l4.9-3h1.1v13.4a2.9,2.9,0,0,0,3.1,3.2,9.7,9.7,0,0,0,5-1.7v-9.8c0-1-.4-1.3-1.2-1.3h-1.4Z" fill="#7f7f7f"/><path d="M199.1,149.1a9.1,9.1,0,0,1-3.5.7c-2.6,0-4.5-1-4.5-4.5V133.6h-2.6v-.8c3-1.1,4.2-3.2,4.8-6.5h1.2V132h4.6v1.6h-4.6v11.7c0,1.9.7,2.7,2.2,2.7a6.7,6.7,0,0,0,2.4-.4Z" fill="#7f7f7f"/><path d="M217.1,144.3c0,3.4-3,5.7-7,5.7a10.1,10.1,0,0,1-6.1-1.9l-.5,1.3h-1l-1.4-5.8.9-.3c2.3,3.7,4.8,5.2,8.1,5.2s4.1-1,4.1-3.2-2.5-2.8-5.6-3.5-6.8-1.7-6.8-5.3,2.5-5.1,6.3-5.1a9.3,9.3,0,0,1,5.3,1.5l.4-.9h.9l1.2,5-.9.3c-1.8-3.2-4.1-4.4-6.7-4.4s-3.5,1-3.5,2.5,2.2,2.5,5.3,3.1S217.1,140.4,217.1,144.3Z" fill="#7f7f7f"/></svg>