<svg xmlns="http://www.w3.org/2000/svg" width="256" height="256" viewBox="0 0 256 256"><circle cx="128" cy="128" r="127.9" fill="#a1d0c7" stroke="#7f7f7f" stroke-miterlimit="10" stroke-width=".22"/><path fill="none" stroke="#d8d3cb" stroke-miterlimit="10" d="M135.8 35.6L41.3 128l94.5 92.5"/><path fill="#d8d3cb" d="M143 205.6c8.2-7.6 18.8-23 18.8-23 12.7-20 17.4-38.4 17.3-54.6s-4.6-34.6-17.3-54.6c0 0-10.6-15.4-18.8-23s-16.4-23.2-7.6-35.8a16.7 16.7 0 0 1 5.8-5.1c1.5-.7 3.5-1.5 4-.5s-1.8 3.3-3.2 4a2 2 0 0 1-.8.4c-1.7.8-14.5 8.4 21.1 46.2 18.3 19.4 27.3 43.9 26.2 68.4 1.1 24.5-7.9 49-26.2 68.4-35.6 37.8-22.8 45.4-21.1 46.2l.8.4c1.4.7 4.2 2.2 3.2 4s-2.5.2-4-.5a16.7 16.7 0 0 1-5.8-5.1c-8.8-12.6 0-28.8 7.6-35.8z"/><rect width="11.1" height="31.82" x="177.4" y="112.1" fill="#d8d3cb" rx="1.9" transform="rotate(-180 183 128)"/><path fill="#d8d3cb" d="M41.3 129.3v-2.4h155.99v2.4z"/><path fill="#d8d3cb" d="M37.1 122.3l4.2 5.7-4.2 5.7h20.6l4.2-5.7-4.2-5.7H37.1zm181.8 5.7l-24 6.7 2.4-6.7-2.4-6.7 24 6.7z"/><path fill="#7f7f7f" d="M68.5 129.2c.8 2.3 1.8 3.3 4 3.5v1.2H60.1v-1.2c3.6-.2 4.4-.9 3.6-2.9l-2.3-6.1h-13l-2.3 6.1c-.7 1.8.4 2.7 4 2.9v1.2H39.5v-1.2a4.4 4.4 0 0 0 4.3-3.2l11.1-29h2.7zm-19.3-7.6h11.4l-5.8-15zm36 11.9a9.7 9.7 0 0 1-4.3.9c-3.2 0-5.6-1.2-5.6-5.5v-14.6h-3.2v-1c3.7-1.3 5.2-3.9 5.9-8h1.5v7.1h5.7v1.9h-5.7v14.6c0 2.3.8 3.4 2.8 3.4a7.5 7.5 0 0 0 2.9-.6zm9.4 1c-4 0-6.4-1.7-6.4-5.1 0-5.1 6.1-6.9 14.2-8.2v-2.9c0-3.5-.7-4.8-3.4-4.8s-4.4 1.1-5 3.5-1.3 2.3-2.4 2.3-1.8-.8-1.8-2.2 3.6-5.4 9.4-5.4c4.1 0 7.5 1.4 7.5 6.7v11.2c0 1.8.5 2.6 1.5 2.6a3.5 3.5 0 0 0 1.8-.5v1.7a6.2 6.2 0 0 1-3.7 1 3.5 3.5 0 0 1-3.8-2.9c-2.2 1.5-5 3-7.9 3zm7.8-11.5c-5.8.8-9.7 2.2-9.7 5.9 0 2.2 1.5 3.2 3.4 3.2a10.7 10.7 0 0 0 6.3-2.5zm10.1 10.9v-1.2c2.6-.2 3.2-.7 3.2-2.5V106c0-1.1-.4-1.6-1.5-1.6h-1.7v-.9l5.9-3.7h1.5v30.4c0 1.8.6 2.3 3.2 2.5v1.2zm20 .6c-3.9 0-6.4-1.7-6.4-5.1 0-5.1 6.1-6.9 14.3-8.2v-2.9c0-3.5-.8-4.8-3.5-4.8s-4.4 1.1-4.9 3.5-1.4 2.3-2.4 2.3-1.9-.8-1.9-2.2 3.6-5.4 9.5-5.4c4 0 7.4 1.4 7.4 6.7v11.2c0 1.8.5 2.6 1.6 2.6a3.5 3.5 0 0 0 1.7-.5v1.7a6 6 0 0 1-3.7 1 3.4 3.4 0 0 1-3.7-2.9c-2.2 1.5-5 3-8 3zm7.9-11.5c-5.9.8-9.7 2.2-9.7 5.9 0 2.2 1.4 3.2 3.4 3.2a11.2 11.2 0 0 0 6.3-2.5zm24.2 10.9v-1.2c2.6-.2 3.2-.7 3.2-2.5v-12.1c0-2.8-1.5-4-3.7-4a10.8 10.8 0 0 0-6.2 2.1v14c0 1.8.6 2.3 3.2 2.5v1.2h-10.7v-1.2c2.6-.2 3.3-.7 3.3-2.5v-12.3c0-1.1-.5-1.6-1.5-1.6h-1.8v-.9l6-3.7h1.5v2.3a15.4 15.4 0 0 1 7.4-2.3c2.8 0 6.7 1.1 6.7 6.4v12.1c0 1.8.7 2.3 3.2 2.5v1.2zm25.9-.4a9.9 9.9 0 0 1-4.4.9c-3.2 0-5.5-1.2-5.5-5.5v-14.6h-3.2v-1c3.7-1.3 5.2-3.9 5.9-8h1.5v7.1h5.7v1.9h-5.7v14.6c0 2.3.8 3.4 2.7 3.4a8 8 0 0 0 3-.6zm9.4 1c-4 0-6.5-1.7-6.5-5.1 0-5.1 6.1-6.9 14.3-8.2v-2.9c0-3.5-.8-4.8-3.5-4.8s-4.3 1.1-4.9 3.5-1.4 2.3-2.4 2.3-1.9-.8-1.9-2.2 3.7-5.4 9.5-5.4c4 0 7.4 1.4 7.4 6.7v11.2c0 1.8.5 2.6 1.6 2.6a3.5 3.5 0 0 0 1.7-.5v1.7a6 6 0 0 1-3.7 1 3.4 3.4 0 0 1-3.7-2.9c-2.2 1.5-5 3-7.9 3zm7.8-11.5c-5.8.8-9.7 2.2-9.7 5.9 0 2.2 1.4 3.2 3.4 3.2a11.2 11.2 0 0 0 6.3-2.5z"/></svg>