<svg id="Layer_1" data-name="Layer 1" xmlns="http://www.w3.org/2000/svg" width="256" height="256" viewBox="0 0 256 256"><circle cx="128" cy="128" r="127.9" fill="#a1d0c7" stroke="#7f7f7f" stroke-miterlimit="10" stroke-width="0.22"/><path d="M121.5,59.5l5,153.6a2.5,2.5,0,0,0,4,0c2.3-2.2,4.1-153.6,4.1-153.6Z" fill="#d8d3cb"/><circle cx="128" cy="52.2" r="10.4" fill="#d8d3cb"/><path d="M133.3,72.8s4.6-4.2,4.8-8.8c0,0,2-11.4,10.6-10.5l1.2.2c1.9.1,8.1,1.1,16.2,8,0,0,32.2,24.2,64.3,10.6a34.2,34.2,0,0,1-12.5,10.8s5.5.3,6.4-.4-5.4,12.9-25.5,3.1c0,0,3.1,6.4,14.5,6.7,0,0-6.2,9.1-20.9,2,0,0,1.4,3.1,7.4,3.2,0,0-9.6,11.4-25.3-1.8,0,0,4.6,5.6,8.6,6.6,0,0-7.8,8.4-17.5-1.2L151,94.4s.2,8.3,15.6,9.6c0,0-20.6,4.1-23.6-9.3l-1.5,1.9s1.1,5.1.1,7.6c0,0-9.3-7.2-9.7-14.6A94,94,0,0,1,133.3,72.8Z" fill="#d8d3cb"/><path d="M122.7,72.8s-4.6-4.2-4.8-8.8c0,0-2-11.4-10.6-10.5l-1.2.2c-1.9.1-8.1,1.1-16.2,8,0,0-32.2,24.2-64.3,10.6A34.2,34.2,0,0,0,38.1,83.1s-5.5.3-6.4-.4,5.4,12.9,25.5,3.1c0,0-3.1,6.4-14.5,6.7,0,0,6.2,9.1,20.9,2,0,0-1.4,3.1-7.4,3.2,0,0,9.6,11.4,25.3-1.8,0,0-4.6,5.6-8.6,6.6,0,0,7.8,8.4,17.5-1.2L105,94.4s-.2,8.3-15.6,9.6c0,0,20.6,4.1,23.6-9.3l1.5,1.9s-1.1,5.1-.1,7.6c0,0,9.3-7.2,9.7-14.6A94,94,0,0,0,122.7,72.8Z" fill="#d8d3cb"/><path d="M101.3,97s18,4.6,17.6-7.4c0,0-1.9-9.9-19.2-4.7,0,0-15.7,7.3-9.4,22.9a21.6,21.6,0,0,0,17.2,10c12.3.9,26,3,26,3s7,1.9,7.5,6.2-2.6,4.8-14.8,7.8-16.6,9.9-16.6,9.9-6.4,11.4,8,17.4l14.4,4.5s4.2,3-.1,5.4-12.7,4.4-15.2,8.9-2.1,10.6,3.6,13.5a56.6,56.6,0,0,1,10.9,7.7s2.8,1.1-.5,5.1c0,0-4.3,3.9-6.1,4.3a1.3,1.3,0,0,0,0,1.9s1.5,2.9,8.1-3.2c0,0,7.7-6.8,1.6-14.3l-8.6-5.7s-8.1-4.2-.8-7.8c0,0,11.9-4.3,14.6-7.2,0,0,6.3-6.8-2.6-14.7l-12.3-5.7s-13.6-5.2-.5-8.5,22.7-4,28.1-12.9c0,0,5.7-10.6-5.8-18.6l-23.2-7.9S99.8,106.4,101.3,97Z" fill="#d8d3cb"/><path d="M154.5,97s-18,4.6-17.6-7.4c0,0,1.9-9.9,19.2-4.7,0,0,15.8,7.3,9.4,22.9a21.6,21.6,0,0,1-17.2,10c-12.3.9-26,3-26,3s-7,1.9-7.5,6.2,2.6,4.8,14.8,7.8,16.6,9.9,16.6,9.9,6.4,11.4-8,17.4l-14.4,4.5s-4.2,3,.1,5.4,12.7,4.4,15.2,8.9,2.1,10.6-3.6,13.5a56.6,56.6,0,0,0-10.9,7.7s-2.8,1.1.5,5.1c0,0,4.3,3.9,6.1,4.3a1.3,1.3,0,0,1,0,1.9s-1.5,2.9-8.1-3.2c0,0-7.7-6.8-1.6-14.3l8.6-5.7s8.1-4.2.8-7.8c0,0-11.9-4.3-14.5-7.2,0,0-6.4-6.8,2.5-14.7l12.3-5.7s13.6-5.2.5-8.5-22.7-4-28.1-12.9c0,0-5.7-10.6,5.9-18.6l23.1-7.9S156,106.4,154.5,97Z" fill="#d8d3cb"/><path d="M66,133.9v-1.2c3.9-.2,4.7-.5,4.7-4.1V117.5H54.6v11.1c0,3.6.8,3.9,4.6,4.1v1.2h-14v-1.2c3.8-.2,4.6-.5,4.6-4.1V105.8c0-3.6-.8-3.9-4.6-4.1v-1.2h14v1.2c-3.8.2-4.6.5-4.6,4.1v9.6H70.7v-9.6c0-3.6-.8-3.9-4.7-4.1v-1.2H80v1.2c-3.8.2-4.6.5-4.6,4.1v22.8c0,3.6.8,3.9,4.6,4.1v1.2Z" fill="#7f7f7f"/><path d="M87.1,120.8c0,.8-.1,1.6-.1,2.3,0,5.6,2,9.5,7.5,9.5,3.1,0,5.7-2.1,7.2-5.5l1.7.9c-1.6,3.9-4.7,6.6-9.2,6.6-7.7,0-11.8-4.9-11.8-11.5s4.1-11.4,10.8-11.4,9.4,3.3,9.4,9.1Zm11.3-1.9c0-3.5-2.2-5.4-5.1-5.4s-5.3,2.1-6,5.4Z" fill="#7f7f7f"/><path d="M117.5,114.8a4.9,4.9,0,0,0-3.7,2.5v12.9c0,1.8.6,2.3,3.2,2.5v1.2H106.3v-1.2c2.6-.2,3.3-.7,3.3-2.5V117.9c0-1.1-.5-1.6-1.5-1.6h-1.8v-.9l6-3.7h1.5v3.1a8.5,8.5,0,0,1,6.3-3.1c2.6,0,3.7,1.3,3.7,2.9a2.2,2.2,0,0,1-2.3,2.4C119.4,117,119.1,114.8,117.5,114.8Z" fill="#7f7f7f"/><path d="M139.7,133.9v-1.2c2.6-.2,3.2-.7,3.2-2.5V118.1c0-2.8-1.5-4-3.8-4a11,11,0,0,0-6.2,2.1v14c0,1.8.6,2.3,3.2,2.5v1.2H125.5v-1.2c2.6-.2,3.2-.7,3.2-2.5V117.9c0-1.1-.4-1.6-1.5-1.6h-1.7v-.9l5.9-3.7h1.5V114a16.1,16.1,0,0,1,7.4-2.3c2,0,4.7.5,6,2.8a15.8,15.8,0,0,1,8.2-2.8c2.8,0,6.8,1.1,6.8,6.4v12.1c0,1.8.6,2.3,3.2,2.5v1.2H153.8v-1.2c2.6-.2,3.2-.7,3.2-2.5V118.1c0-2.8-1.4-4-3.7-4a11.4,11.4,0,0,0-6.4,2.1,11.1,11.1,0,0,1,.2,1.9v12.1c0,1.8.6,2.3,3.2,2.5v1.2Z" fill="#7f7f7f"/><path d="M172.1,120.8a18.5,18.5,0,0,0-.1,2.3c0,5.6,2,9.5,7.5,9.5,3.1,0,5.7-2.1,7.2-5.5l1.7.9c-1.6,3.9-4.7,6.6-9.2,6.6-7.7,0-11.8-4.9-11.8-11.5s4.1-11.4,10.8-11.4,9.4,3.3,9.4,9.1Zm11.3-1.9c0-3.5-2.2-5.4-5.1-5.4s-5.3,2.1-6,5.4Z" fill="#7f7f7f"/><path d="M211,127.6c0,4.3-3.7,7-8.6,7a13.2,13.2,0,0,1-7.6-2.3l-.5,1.6H193l-1.7-7.2,1.1-.3c2.8,4.5,5.9,6.4,10,6.4,2.5,0,5-1.2,5-3.9s-3.1-3.5-6.8-4.3-8.5-2.1-8.5-6.7,3.1-6.2,7.8-6.2a10.3,10.3,0,0,1,6.5,1.9l.5-1.2h1.2l1.4,6.1-1,.4c-2.3-3.9-5.1-5.4-8.4-5.4s-4.3,1.3-4.3,3.1,2.8,3.1,6.6,3.9S211,122.8,211,127.6Z" fill="#7f7f7f"/></svg>