<svg xmlns="http://www.w3.org/2000/svg" width="256" height="256" viewBox="0 0 256 256"><circle cx="128" cy="128" r="127.9" fill="#a1d0c7" stroke="#7f7f7f" stroke-miterlimit="10" stroke-width=".22"/><path fill="#d8d3cb" d="M121.5 59.5l5 153.6a2.5 2.5 0 0 0 4 0c2.3-2.2 4.1-153.6 4.1-153.6z"/><circle cx="128" cy="52.2" r="10.4" fill="#d8d3cb"/><path fill="#d8d3cb" d="M133.3 72.8s4.6-4.2 4.8-8.8c0 0 2-11.4 10.6-10.5l1.2.2c1.9.1 8.1 1.1 16.2 8 0 0 32.2 24.2 64.3 10.6a34.2 34.2 0 0 1-12.5 10.8s5.5.3 6.4-.4-5.4 12.9-25.5 3.1c0 0 3.1 6.4 14.5 6.7 0 0-6.2 9.1-20.9 2 0 0 1.4 3.1 7.4 3.2 0 0-9.6 11.4-25.3-1.8 0 0 4.6 5.6 8.6 6.6 0 0-7.8 8.4-17.5-1.2L151 94.4s.2 8.3 15.6 9.6c0 0-20.6 4.1-23.6-9.3l-1.5 1.9s1.1 5.1.1 7.6c0 0-9.3-7.2-9.7-14.6a94 94 0 0 1 1.4-16.8zm-10.6 0s-4.6-4.2-4.8-8.8c0 0-2-11.4-10.6-10.5l-1.2.2c-1.9.1-8.1 1.1-16.2 8 0 0-32.2 24.2-64.3 10.6a34.2 34.2 0 0 0 12.5 10.8s-5.5.3-6.4-.4 5.4 12.9 25.5 3.1c0 0-3.1 6.4-14.5 6.7 0 0 6.2 9.1 20.9 2 0 0-1.4 3.1-7.4 3.2 0 0 9.6 11.4 25.3-1.8 0 0-4.6 5.6-8.6 6.6 0 0 7.8 8.4 17.5-1.2l14.6-6.9s-.2 8.3-15.6 9.6c0 0 20.6 4.1 23.6-9.3l1.5 1.9s-1.1 5.1-.1 7.6c0 0 9.3-7.2 9.7-14.6a94 94 0 0 0-1.4-16.8z"/><path fill="#d8d3cb" d="M101.3 97s18 4.6 17.6-7.4c0 0-1.9-9.9-19.2-4.7 0 0-15.7 7.3-9.4 22.9a21.6 21.6 0 0 0 17.2 10c12.3.9 26 3 26 3s7 1.9 7.5 6.2-2.6 4.8-14.8 7.8-16.6 9.9-16.6 9.9-6.4 11.4 8 17.4l14.4 4.5s4.2 3-.1 5.4-12.7 4.4-15.2 8.9-2.1 10.6 3.6 13.5a56.6 56.6 0 0 1 10.9 7.7s2.8 1.1-.5 5.1c0 0-4.3 3.9-6.1 4.3a1.3 1.3 0 0 0 0 1.9s1.5 2.9 8.1-3.2c0 0 7.7-6.8 1.6-14.3l-8.6-5.7s-8.1-4.2-.8-7.8c0 0 11.9-4.3 14.6-7.2 0 0 6.3-6.8-2.6-14.7l-12.3-5.7s-13.6-5.2-.5-8.5 22.7-4 28.1-12.9c0 0 5.7-10.6-5.8-18.6l-23.2-7.9s-23.4-.5-21.9-9.9z"/><path fill="#d8d3cb" d="M154.5 97s-18 4.6-17.6-7.4c0 0 1.9-9.9 19.2-4.7 0 0 15.8 7.3 9.4 22.9a21.6 21.6 0 0 1-17.2 10c-12.3.9-26 3-26 3s-7 1.9-7.5 6.2 2.6 4.8 14.8 7.8 16.6 9.9 16.6 9.9 6.4 11.4-8 17.4l-14.4 4.5s-4.2 3 .1 5.4 12.7 4.4 15.2 8.9 2.1 10.6-3.6 13.5a56.6 56.6 0 0 0-10.9 7.7s-2.8 1.1.5 5.1c0 0 4.3 3.9 6.1 4.3a1.3 1.3 0 0 1 0 1.9s-1.5 2.9-8.1-3.2c0 0-7.7-6.8-1.6-14.3l8.6-5.7s8.1-4.2.8-7.8c0 0-11.9-4.3-14.5-7.2 0 0-6.4-6.8 2.5-14.7l12.3-5.7s13.6-5.2.5-8.5-22.7-4-28.1-12.9c0 0-5.7-10.6 5.9-18.6l23.1-7.9s23.4-.5 21.9-9.9z"/></svg>