<svg xmlns="http://www.w3.org/2000/svg" width="256" height="256" viewBox="0 0 256 256"><circle cx="128" cy="128" r="127.9" fill="#a1d0c7" stroke="#7f7f7f" stroke-miterlimit="10" stroke-width=".22"/><path fill="#d8d3cb" d="M75.2 72.3s2.2 1 12.9 2a156.6 156.6 0 0 0 33.5 2.5s26.8-.8 30.7-.1c0 0 7 1.2 13.8 2.9s23.9.2 23.9.2 18-.6 22.2 3.7c0 0 6.9 4.8 6.2 12.6 0 0-3.3 35.2 4.1 51.1 0 0 1.9 7.2-2.9 11 0 0-1.7-8.5-1.4-14.6a21.6 21.6 0 0 0-.9-8.4s-5.1-22-2.9-31.4a56.8 56.8 0 0 0-3.5 15.7s-1.5 13.4-3.4 20.5 6.2 19.1 6.2 19.1 1.4 1.7-.6 6.2-.5 13.2-.5 13.2a34.7 34.7 0 0 1-1.3 8.4s-.8 4.5 0 6.6c0 0 .3.5-.9 1.3s-1.5 2.4-1.4 5c0 0 .1.8-1.4 1 0 0-.1 4.1-4.2 4.1h-5.7s-1.8.2-1.1-1.7 3.5-4 3.5-4-.4-.7.4-1.7 3.2-2 3.7-11.1c0 0 1.1-17.4-5.1-22.4 0 0-2.1-1.3-3.3-5.8 0 0-.5-.6-.7.3s1.1 2.2-2.6 7.1-5.8 4.7-11.3 17.9c0 0-.6 4.7-3.4 4.9a2.2 2.2 0 0 0-2.2 2.1c-.5 2.1-1.7 2.5-1.7 2.5s0 3.4-2.6 4l-7.1.4s-2.6-.1-1.1-2.3a14 14 0 0 1 4.1-3.7 9.2 9.2 0 0 1 2.2-3.1 8.6 8.6 0 0 0 2.2-4 40.7 40.7 0 0 1 5.6-8.9c3.5-4.1 4.4-15.9 4.4-15.9a2 2 0 0 0-2.6 1.1c-1.1 1.7-1.8 1.3-1.8 1.3s-1-.3.1-2.5-.3-1.5-.3-1.5-1.4 2.3-2.6 1.7 1.4-3.9 1.4-3.9.2-.3-.3-.7-3.1-6.7-7-7.7c0 0-1.1-.5-2.2 1.1s-7.9 7.8-32.5 2.7c0 0-14.2-2.9-16.9-2.6 0 0-4.8 17.3-1.2 35.2 0 0 .3.4-.7.2s-2.1 2.8-1.7 4.6a1.9 1.9 0 0 0-.8 1.4c-.3 1.1-.6 2.2-2.3 2.3h-5.5s-3.1.2-1.9-2.4a7.3 7.3 0 0 1 3.8-3.5 5.9 5.9 0 0 1 .9-2.4c.8-.9 4.3-8.3-.1-19.2 0 0-1.2-1.6-1.2-5.1a23.2 23.2 0 0 0-.8-6.2 8 8 0 0 0-2.7 4.7c-.7 3.4-4.5 8.6-4.2 14.8 0 0 .3 2.9-2.2 7.2s-1.9 12.4-2.2 13.9a3 3 0 0 1-2 2.2c-.7.3-2.2.7-1.8 3.5 0 0 .3 1.1-1.8 1.2 0 0 0 4.8-3.6 4.9h-5.4s-2 .1-.7-2.5a13 13 0 0 1 3.3-4s-.3-.6.8-2.1 8.3-13.2 5.9-25.2a17.1 17.1 0 0 1 .9-7.8c1.5-4.1 1-10.2 1-10.2s-5.3.5-6.9-1.6c0 0-7.6-7.9-10.5-15.5 0 0-.8-3.3 0-9.5s.9-18.4-9-23.9c0 0-.3 1.2-3.5 1.1 0 0-4.3 2.8-7.9.9 0 0-5.7-.1-6.5-.5a7.1 7.1 0 0 1-9.5-.7s-2.2 1.3-2.7-1.7a23.2 23.2 0 0 0-.2-2.4c-.1-.2-2.4-1.5.8-4.4S42 83.6 42 83.6a5 5 0 0 0-4.5-5.2s-2.5 0-3.9-5.8c0 0 2.8-3 9.4-.3 0 0 1.1.7 2.2-.7a17 17 0 0 1 2.4-2.3s-8.2-1.4-6.1-13.6c0 0 1 8.2 9.2 10.2a1.4 1.4 0 0 0 .4-1.1s-.4-.3-1.1.4.2-1 1.8-1.7c0 0 .1-.6-1.2.1s.4-1.2 2.2-.8c0 0 1.1.3.1-.6a2.7 2.7 0 0 1 1 .2s.8.3-.5-.6a3.5 3.5 0 0 1 2.4.8s.8.5-.3-.7a4.4 4.4 0 0 1 1.6.9s1 .3-.6-1.2a6.4 6.4 0 0 1 4.6 3.5s1.4-1-.2-6.5c0 0-1.9-5.8.2-8.5a13.4 13.4 0 0 0 2.5 7.5s4.9 6.7 1.2 9.8c0 0 .3.5 2.2.6 0 0 3.3-6.9 10.9-4.4 0 0 1 .6 0 2.6a21.3 21.3 0 0 0-1.5 4.2c-.1.1-.3 1.4-1.2 1.9z"/><path fill="#7f7f7f" d="M98.4 142v-2.1c6.6-.4 8-.9 8-7.1V93.5c0-6.3-1.4-6.7-8-7.2v-2h24.2v2c-6.6.5-8 .9-8 7.2v39.3c0 6.2 1.4 6.7 8 7.1v2.1zm67.2-18.6c0 11.3-7.9 19.8-19.5 19.8s-19.4-8.5-19.4-19.8 7.8-19.8 19.4-19.8 19.5 8.6 19.5 19.8zm-8 0c0-9.6-3.2-16.6-11.5-16.6s-11.5 7-11.5 16.6 3.2 16.6 11.5 16.6 11.5-7.1 11.5-16.6z"/></svg>