<svg xmlns="http://www.w3.org/2000/svg" width="256" height="256" viewBox="0 0 256 256"><circle cx="128" cy="128" r="128" fill="#a1d0c7" stroke="#7f7f7f" stroke-miterlimit="10" stroke-width=".22"/><path fill="none" stroke="#d8d3cb" stroke-miterlimit="10" d="M95.8 122a32.8 32.8 0 0 1 27.8-26.5 32.4 32.4 0 0 1 23.8 6.1m8 8.4a33.4 33.4 0 0 1 5.1 13.6 32.8 32.8 0 0 1-65 8.8m127.3 8.3l-.3 2.3a95.8 95.8 0 0 1-94.2 80.7m74.3-155.6a95.4 95.4 0 0 1 21.1 60.6"/><path fill="none" stroke="#d8d3cb" stroke-miterlimit="10" d="M122.2 223.5c-3-.2-6.1-.5-9.2-1a95.7 95.7 0 1 1 82.1-162.7"/><path fill="none" stroke="#d8d3cb" stroke-miterlimit="10" d="M28.3 161.3a83.6 83.6 0 0 1-2.7-9.8 104.8 104.8 0 1 1 5 16M139.3 124a12 12 0 1 1-5.7-6.6m-39.8-15.8a42.8 42.8 0 0 1 19.3-14.2"/><path fill="none" stroke="#d8d3cb" stroke-miterlimit="10" d="M88.9 109.6a42 42 0 0 0-4.1 18.4c0 5.5 1.8 28.2 21.4 37.3m7.2 3.4a44.3 44.3 0 0 0 14.6 2.5 43.3 43.3 0 0 0 40.5-27.9 71.6 71.6 0 0 0 2.7-11m-50.4-46.9a43.7 43.7 0 0 1 7.2-.6 43.1 43.1 0 0 1 42.9 38.3M80 152a53.5 53.5 0 0 1-4.9-33.4 54.8 54.8 0 0 1 13.3-26.9"/><path fill="none" stroke="#d8d3cb" stroke-miterlimit="10" d="M178.8 145.3a53.3 53.3 0 0 0-41.4-70.2c-3.4-.6-27.7-3.8-42.9 10.9m-8.9 74.9a53.6 53.6 0 0 0 88.6-5.5m-77.7 28.3a63.5 63.5 0 0 1-20.2-18m49.3 26.2a62.1 62.1 0 0 1-17.3-3m-36.6-30.4a64 64 0 1 1 62.4 33.2m-49-1.3a60.5 60.5 0 0 0 25.3 10.6m-52.2-45.1a83.1 83.1 0 0 0 19.6 28.5m112.5-14.3a75.1 75.1 0 0 1-70.8 32.5"/><path fill="none" stroke="#d8d3cb" stroke-miterlimit="10" d="M140.3 53.9a72.5 72.5 0 0 1 7.8 1.7 75.1 75.1 0 0 1 52.3 92.5 63.8 63.8 0 0 1-2.2 6.6m-142.8-7.4a75.1 75.1 0 0 1 65.8-94.1"/><path fill="none" stroke="#d8d3cb" stroke-miterlimit="10" d="M163.6 50.4a63.6 63.6 0 0 1 5.8 3 85.3 85.3 0 0 1-68.9 155.4M58.3 78.7a85.4 85.4 0 0 1 94.8-32.3m-61.2 159l-5.3-2.8A85.3 85.3 0 0 1 51.2 90.7"/><path fill="none" stroke="#d8d3cb" stroke-miterlimit="10" d="M136 148.8a22.1 22.1 0 0 1-18.1-.9 22.3 22.3 0 0 1-9.8-30 22 22 0 0 1 15.8-11.8m9 .1a25 25 0 0 1 5.2 1.9 22.4 22.4 0 0 1 5.2 36.2m-11.4-26.1l6.1-10.1m-38.1 36.7l9.3-4.8m40.3-17.9l10.1-2.7M96.9 159l8.5-7.2m29.3-55.9l2.5-10.1m-25.4 2.4l-3.6-10.5m-33 60l10.4-2.8m-.6 40.5l7.1-7.4m-11.5 3l-8.2 7.3m36.9 9.3l-4.5 12.2m-16.7-7.4l-5.2 8.1m34.7 12.2l-1 10.3m-63.7-96.4l-10.3-.5M87 110l11.1 4.7m90.3 55.5l10 6.4m-2-79.6l9.1-4.7m-85.2-37.6l-1.5-21.9M84.7 162.1l9-6.8m40.8 37.8l-.7-11.7M96.4 86.3l-8-8.6m125 49.9l11.8-.1m-39.9 88.6l-5.1-8m14.3-146.8l8.1-7.4"/></svg>