<svg id="Layer_1" data-name="Layer 1" xmlns="http://www.w3.org/2000/svg" width="256" height="256" viewBox="0 0 256 256"><circle cx="128" cy="128" r="128" fill="#a1d0c7" stroke="#7f7f7f" stroke-miterlimit="10" stroke-width="0.22"/><path d="M95.8,122a32.8,32.8,0,0,1,27.8-26.5,32.4,32.4,0,0,1,23.8,6.1" fill="none" stroke="#d8d3cb" stroke-miterlimit="10"/><path d="M155.4,110a33.4,33.4,0,0,1,5.1,13.6,32.8,32.8,0,0,1-65,8.8" fill="none" stroke="#d8d3cb" stroke-miterlimit="10"/><path d="M222.8,140.7l-.3,2.3a95.8,95.8,0,0,1-94.2,80.7" fill="none" stroke="#d8d3cb" stroke-miterlimit="10"/><path d="M202.6,68.1a95.4,95.4,0,0,1,21.1,60.6" fill="none" stroke="#d8d3cb" stroke-miterlimit="10"/><path d="M122.2,223.5c-3-.2-6.1-.5-9.2-1A95.7,95.7,0,1,1,195.1,59.8" fill="none" stroke="#d8d3cb" stroke-miterlimit="10"/><path d="M28.3,161.3a83.6,83.6,0,0,1-2.7-9.8,104.8,104.8,0,1,1,5,16" fill="none" stroke="#d8d3cb" stroke-miterlimit="10"/><path d="M139.3,124a12,12,0,1,1-5.7-6.6" fill="none" stroke="#d8d3cb" stroke-miterlimit="10"/><path d="M93.8,101.6a42.8,42.8,0,0,1,19.3-14.2" fill="none" stroke="#d8d3cb" stroke-miterlimit="10"/><path d="M88.9,109.6A42,42,0,0,0,84.8,128c0,5.5,1.8,28.2,21.4,37.3" fill="none" stroke="#d8d3cb" stroke-miterlimit="10"/><path d="M113.4,168.7a44.3,44.3,0,0,0,14.6,2.5,43.3,43.3,0,0,0,40.5-27.9,71.6,71.6,0,0,0,2.7-11" fill="none" stroke="#d8d3cb" stroke-miterlimit="10"/><path d="M120.8,85.4a43.7,43.7,0,0,1,7.2-.6,43.1,43.1,0,0,1,42.9,38.3" fill="none" stroke="#d8d3cb" stroke-miterlimit="10"/><path d="M80,152a53.5,53.5,0,0,1-4.9-33.4A54.8,54.8,0,0,1,88.4,91.7" fill="none" stroke="#d8d3cb" stroke-miterlimit="10"/><path d="M178.8,145.3a53.3,53.3,0,0,0-41.4-70.2c-3.4-.6-27.7-3.8-42.9,10.9" fill="none" stroke="#d8d3cb" stroke-miterlimit="10"/><path d="M85.6,160.9a53.6,53.6,0,0,0,88.6-5.5" fill="none" stroke="#d8d3cb" stroke-miterlimit="10"/><path d="M96.5,183.7a63.5,63.5,0,0,1-20.2-18" fill="none" stroke="#d8d3cb" stroke-miterlimit="10"/><path d="M125.6,191.9a62.1,62.1,0,0,1-17.3-3" fill="none" stroke="#d8d3cb" stroke-miterlimit="10"/><path d="M71.7,158.5a64,64,0,1,1,62.4,33.2" fill="none" stroke="#d8d3cb" stroke-miterlimit="10"/><path d="M85.1,190.4A60.5,60.5,0,0,0,110.4,201" fill="none" stroke="#d8d3cb" stroke-miterlimit="10"/><path d="M58.2,155.9a83.1,83.1,0,0,0,19.6,28.5" fill="none" stroke="#d8d3cb" stroke-miterlimit="10"/><path d="M190.3,170.1a75.1,75.1,0,0,1-70.8,32.5" fill="none" stroke="#d8d3cb" stroke-miterlimit="10"/><path d="M140.3,53.9a72.5,72.5,0,0,1,7.8,1.7,75.1,75.1,0,0,1,52.3,92.5,63.8,63.8,0,0,1-2.2,6.6" fill="none" stroke="#d8d3cb" stroke-miterlimit="10"/><path d="M55.4,147.3a75.1,75.1,0,0,1,65.8-94.1" fill="none" stroke="#d8d3cb" stroke-miterlimit="10"/><path d="M163.6,50.4a63.6,63.6,0,0,1,5.8,3,85.3,85.3,0,0,1-68.9,155.4" fill="none" stroke="#d8d3cb" stroke-miterlimit="10"/><path d="M58.3,78.7a85.4,85.4,0,0,1,94.8-32.3" fill="none" stroke="#d8d3cb" stroke-miterlimit="10"/><path d="M91.9,205.4l-5.3-2.8A85.3,85.3,0,0,1,51.2,90.7" fill="none" stroke="#d8d3cb" stroke-miterlimit="10"/><path d="M136,148.8a22.1,22.1,0,0,1-18.1-.9,22.3,22.3,0,0,1-9.8-30,22,22,0,0,1,15.8-11.8" fill="none" stroke="#d8d3cb" stroke-miterlimit="10"/><path d="M132.9,106.2a25,25,0,0,1,5.2,1.9,22.4,22.4,0,0,1,5.2,36.2" fill="none" stroke="#d8d3cb" stroke-miterlimit="10"/><line x1="131.9" y1="118.2" x2="138" y2="108.1" fill="none" stroke="#d8d3cb" stroke-miterlimit="10"/><line x1="99.9" y1="144.8" x2="109.2" y2="140" fill="none" stroke="#d8d3cb" stroke-miterlimit="10"/><line x1="149.5" y1="122.1" x2="159.6" y2="119.4" fill="none" stroke="#d8d3cb" stroke-miterlimit="10"/><line x1="96.9" y1="159" x2="105.4" y2="151.8" fill="none" stroke="#d8d3cb" stroke-miterlimit="10"/><line x1="134.7" y1="95.9" x2="137.2" y2="85.8" fill="none" stroke="#d8d3cb" stroke-miterlimit="10"/><line x1="111.8" y1="88.2" x2="108.2" y2="77.7" fill="none" stroke="#d8d3cb" stroke-miterlimit="10"/><line x1="75.2" y1="137.7" x2="85.6" y2="134.9" fill="none" stroke="#d8d3cb" stroke-miterlimit="10"/><line x1="85" y1="175.4" x2="92.1" y2="168" fill="none" stroke="#d8d3cb" stroke-miterlimit="10"/><line x1="80.6" y1="171" x2="72.4" y2="178.3" fill="none" stroke="#d8d3cb" stroke-miterlimit="10"/><line x1="109.3" y1="187.6" x2="104.8" y2="199.8" fill="none" stroke="#d8d3cb" stroke-miterlimit="10"/><line x1="88.1" y1="192.4" x2="82.9" y2="200.5" fill="none" stroke="#d8d3cb" stroke-miterlimit="10"/><line x1="117.6" y1="212.7" x2="116.6" y2="223" fill="none" stroke="#d8d3cb" stroke-miterlimit="10"/><line x1="52.9" y1="126.6" x2="42.6" y2="126.1" fill="none" stroke="#d8d3cb" stroke-miterlimit="10"/><line x1="87" y1="110" x2="98.1" y2="114.7" fill="none" stroke="#d8d3cb" stroke-miterlimit="10"/><line x1="188.4" y1="170.2" x2="198.4" y2="176.6" fill="none" stroke="#d8d3cb" stroke-miterlimit="10"/><line x1="196.4" y1="97" x2="205.5" y2="92.3" fill="none" stroke="#d8d3cb" stroke-miterlimit="10"/><line x1="120.3" y1="54.7" x2="118.8" y2="32.8" fill="none" stroke="#d8d3cb" stroke-miterlimit="10"/><line x1="84.7" y1="162.1" x2="93.7" y2="155.3" fill="none" stroke="#d8d3cb" stroke-miterlimit="10"/><line x1="134.5" y1="193.1" x2="133.8" y2="181.4" fill="none" stroke="#d8d3cb" stroke-miterlimit="10"/><line x1="96.4" y1="86.3" x2="88.4" y2="77.7" fill="none" stroke="#d8d3cb" stroke-miterlimit="10"/><line x1="213.4" y1="127.6" x2="225.2" y2="127.5" fill="none" stroke="#d8d3cb" stroke-miterlimit="10"/><line x1="185.3" y1="216.1" x2="180.2" y2="208.1" fill="none" stroke="#d8d3cb" stroke-miterlimit="10"/><line x1="194.5" y1="61.3" x2="202.6" y2="53.9" fill="none" stroke="#d8d3cb" stroke-miterlimit="10"/><path d="M109.2,113.4h-14v-1.2c3.8-.3,4.6-.5,4.6-4.2V83.5a1.3,1.3,0,0,0-1.4-1.4c-5.5,0-7.4,1.3-10.5,6.1l-1.1-.5,3.7-8.8h1.3a1.2,1.2,0,0,0,1.3,1h18.1a1.3,1.3,0,0,0,1.4-1h1.2l3.7,8.8-1,.5c-3-4.8-5.3-6.1-10.5-6.1a1.3,1.3,0,0,0-1.4,1.4V108c0,3.7.8,3.9,4.6,4.2Z" fill="#7f7f7f"/><path d="M133.7,113.4v-1.2c2.6-.3,3.2-.8,3.2-2.5V97.6c0-2.9-1.5-4-3.7-4a10.7,10.7,0,0,0-6.2,2v14.1c0,1.7.6,2.2,3.2,2.5v1.2H119.5v-1.2c2.6-.3,3.3-.8,3.3-2.5V85.5c0-1.2-.5-1.6-1.5-1.6h-1.8v-1l6-3.7H127V93.5a15.8,15.8,0,0,1,7.4-2.4c2.8,0,6.8,1.1,6.8,6.5v12.1c0,1.7.6,2.2,3.2,2.5v1.2Z" fill="#7f7f7f"/><path d="M152,100.3a17.7,17.7,0,0,0-.1,2.3c0,5.5,1.9,9.5,7.4,9.5,3.1,0,5.8-2.1,7.2-5.5l1.8.8c-1.7,4-4.7,6.7-9.3,6.7-7.6,0-11.7-5-11.7-11.5s4-11.5,10.8-11.5,9.4,3.3,9.4,9.2Zm11.2-1.9c0-3.5-2.2-5.4-5.1-5.4s-5.3,2.1-5.9,5.4Z" fill="#7f7f7f"/><path d="M40.5,152.3c6.7,0,10.4-2.9,13.9-7.2l.9.6-4.7,8.8h-24v-1.2c3.8-.3,4.6-.5,4.6-4.2V126.4c0-3.7-.8-3.9-4.6-4.2V121h14v1.2c-3.8.3-4.6.5-4.6,4.2v24.5a1.3,1.3,0,0,0,1.4,1.4Z" fill="#7f7f7f"/><path d="M63.8,155.1c-3.9,0-6.4-1.8-6.4-5.1,0-5.2,6.1-6.9,14.3-8.3v-2.9c0-3.4-.8-4.8-3.5-4.8s-4.4,1.2-5,3.5-1.3,2.3-2.3,2.3-1.9-.7-1.9-2.1,3.6-5.5,9.5-5.5c4,0,7.4,1.5,7.4,6.7v11.3c0,1.7.5,2.6,1.5,2.6a3.8,3.8,0,0,0,1.8-.6v1.7a6,6,0,0,1-3.7,1.1,3.5,3.5,0,0,1-3.8-3A13.8,13.8,0,0,1,63.8,155.1Zm7.9-11.6c-5.9.9-9.7,2.2-9.7,5.9a3,3,0,0,0,3.3,3.3c2.2,0,4.3-1.1,6.4-2.5Z" fill="#7f7f7f"/><path d="M81.2,124l6-3.7h1.5v14.3a8.3,8.3,0,0,1,6.3-2.4c6.4,0,10,5,10,11.5s-3.6,11.5-10.3,11.5a8.4,8.4,0,0,1-6.5-2.5l-2.1,2.5H84.5V126.8c0-1.4-.5-1.8-1.5-1.8H81.2Zm7.5,26.5a6.3,6.3,0,0,0,5.3,2.6c4.7,0,6.4-3.9,6.4-9.4s-1.7-9.4-6.4-9.4a6.3,6.3,0,0,0-5.3,2.6Z" fill="#7f7f7f"/><path d="M117,158.7c-1.4,3.6-3.7,5.3-6.7,5.3s-4.6-1.2-4.6-3a2.3,2.3,0,0,1,2.3-2.3c2.1,0,2.3,2.4,4,2.4s2.4-1.4,3.1-3.3l1.1-2.8-6.4-16.7c-1.1-2.9-1.5-3.9-3.8-4.2v-1.2h10.6v1.2c-3.4.3-3.3,1.2-2.2,4.2l4.1,11,4.4-11c1.2-2.9.4-3.9-2.3-4.2v-1.2H129v1.2c-1.8.3-2.6,1.3-3.8,4.2Z" fill="#7f7f7f"/><path d="M141.1,135.4a4.7,4.7,0,0,0-3.8,2.4v13c0,1.7.6,2.2,3.2,2.5v1.2H129.8v-1.2c2.7-.3,3.3-.8,3.3-2.5V138.5c0-1.2-.4-1.6-1.5-1.6h-1.8v-1l6-3.7h1.5v3.2a8.8,8.8,0,0,1,6.3-3.2c2.7,0,3.7,1.4,3.7,2.9a2.2,2.2,0,0,1-2.3,2.5C142.9,137.6,142.6,135.4,141.1,135.4Z" fill="#7f7f7f"/><path d="M149,154.5v-1.2c2.6-.3,3.2-.8,3.2-2.5V138.5c0-1.2-.4-1.6-1.4-1.6H149v-1l6-3.7h1.5v18.6c0,1.7.6,2.2,3.2,2.5v1.2Zm8.3-30a2.8,2.8,0,0,1-2.9,2.7,2.7,2.7,0,0,1-2.8-2.7,2.7,2.7,0,0,1,2.8-2.7A2.7,2.7,0,0,1,157.3,124.5Z" fill="#7f7f7f"/><path d="M176.4,154.5v-1.2c2.6-.3,3.2-.8,3.2-2.5V138.7c0-2.9-1.5-4.1-3.8-4.1a11,11,0,0,0-6.2,2.1v14.1c0,1.7.7,2.2,3.2,2.5v1.2H162.2v-1.2c2.6-.3,3.2-.8,3.2-2.5V138.5c0-1.2-.4-1.6-1.4-1.6h-1.8v-1l6-3.7h1.4v2.4a15.1,15.1,0,0,1,7.4-2.4c2.9,0,6.8,1.1,6.8,6.5v12.1c0,1.7.6,2.2,3.2,2.5v1.2Z" fill="#7f7f7f"/><path d="M202.3,154.1a11.9,11.9,0,0,1-4.4.9c-3.2,0-5.6-1.2-5.6-5.6V134.9h-3.2v-1c3.8-1.4,5.2-3.9,6-8h1.4v7h5.8v2h-5.8v14.6c0,2.2.8,3.3,2.8,3.3a8,8,0,0,0,3-.6Z" fill="#7f7f7f"/><path d="M218.9,154.5v-1.2c2.7-.3,3.2-.8,3.2-2.5V138.7c0-2.9-1.4-4.1-3.7-4.1a11,11,0,0,0-6.2,2.1v14.1c0,1.7.6,2.2,3.2,2.5v1.2H204.7v-1.2c2.7-.3,3.3-.8,3.3-2.5V126.6c0-1.2-.4-1.6-1.5-1.6h-1.8v-1l6-3.7h1.5v14.3a15.1,15.1,0,0,1,7.4-2.4c2.8,0,6.8,1.1,6.8,6.5v12.1c0,1.7.6,2.2,3.2,2.5v1.2Z" fill="#7f7f7f"/></svg>