<svg xmlns="http://www.w3.org/2000/svg" width="256" height="256" viewBox="0 0 256 256"><circle cx="128" cy="128" r="128" fill="#a1d0c7" stroke="#7f7f7f" stroke-miterlimit="10" stroke-width=".22"/><path fill="#d8d3cb" d="M190.3 71.3h-5.4c-10-7.1-19-7.6-19-7.6 3.9-4.3 8.3-4 8.3-4-.4 3.6.8 3.4.8 3.4 1.9-.1 2.4-.7 2.7-2.3S182 59 182 59a1.5 1.5 0 0 0 .8-2.5c-1.8-1.9-.9-2.3-.9-2.3a3.1 3.1 0 0 0 1.4-.9s.9-2.7-.4-2.9-1.1-1-1-2.5a4 4 0 0 0-.8-2.6c.1-5.2-1.1-5.1-1.1-5.1-3.9.5-3-.7-3-.7 2.3-2.6.5-3.4.5-3.4-2.8-1.9-3.2-.8-3.2-.8s-1.4 1.1-1.7.8a2.3 2.3 0 0 1 0-1.2c.8-.5.9-2 .9-2 0-2.5-2.6-2-2.6-2a4.9 4.9 0 0 0-2.7 1.6 3.8 3.8 0 0 1-2.3 0c-.7-3-5.4-2.7-4.8-1.5a5.5 5.5 0 0 1 .2 3.3c-4.9 2.2-3.3 3.4-3.3 3.4 1.7.1 1.1 2.6 1.1 2.6-2.7 7.3-5.2 6.6-5.2 6.6.8-3.7-1.7-10.3-5.8-13.1s-3.2-9.1-3.2-9.1c-10.6.9-9.8 16.7-9.8 16.7-11.1-7.6-20.2 11.5-20.2 11.5 5.7 7.9 17.7 9.8 17.7 9.8-2.2 2.7-3.3 6.5-3.9 10.3-4.4 2.8-31.5 23.7-28.9 108.4C73.1 69.1 108 28 109.7 24.2s-1.3-.9-1.3-.9c-66.6 77.9-9.5 202.9-3.1 216.3a6.7 6.7 0 0 0 .6 1.2 2.1 2.1 0 0 0 3.8-.8c.2-1.1-.2-2.6-.4-4.7a26 26 0 0 0-.4-2.8c3.6-13.6 14.5-25.9 33.5-41.8 21.2-17.8 25.8-44.9 26.3-48.3a1.9 1.9 0 0 0-.2-.8c-.3-.3-.5-.2-.6 0s-.2.3-.3.5c-.3 1.8-3.6 15.6-29.6 35.8-21.5 16.9-28.5 34.8-30.6 42-3.8-32.6-9-106.9 20.9-139.5 0 2.8.2 4.7.2 4.7 17.8 1.9 22.2-2 22.2-2 .8 9.3 13.2 18.1 13.2 18.1 14.1-8 10.9-19.1 10.9-19.1 18.2-.6 15.5-10.8 15.5-10.8z"/></svg>