<svg id="Layer_1" data-name="Layer 1" xmlns="http://www.w3.org/2000/svg" width="256" height="256" viewBox="0 0 256 256"><circle cx="128" cy="128" r="127.3" fill="#a1d0c7" stroke="#7f7f7f" stroke-miterlimit="10" stroke-width="0.22"/><path d="M198.4,30.8a27.4,27.4,0,0,0-8.5-1.7c-10-5.8-21.4-5.8-21.4-5.8s-15.1-.9-43.7,5.5c-24.8,5.6-41.5-.1-50.7-5.5a63.7,63.7,0,0,0,47.2,8.9c33.7-6.8,44.5-5.8,44.5-5.8a65,65,0,0,1,14.3,2.5c-9.8.4-23.6,2.7-41.6,9.7-43.9,17.1-64.1-2.4-64.1-2.4,5.3,5.7,23.2,15.7,53.3,7.7,13.9-3.7,28.1-7.8,36-10.1a56.4,56.4,0,0,1,18.7-2.2,55.4,55.4,0,0,1,5.6.5c8.4,4.5,14.1,11.9,11.7,22.8-2.9,12.9-13.3,17.6-19.8,19.3l-14.8-.4L152.2,84.3l5.3-.8c.5.2,2.4.2,6-.2,21.4-2,45.3-.3,51.6-25.6C219.5,40.5,198.4,30.8,198.4,30.8Zm-9.8,45-1.6.3c8.1-4.1,20.6-13.2,16.5-29.4A27.2,27.2,0,0,0,196.3,34c7.6,2.5,14.1,7.4,15.2,16.7C214.2,74.6,188.6,75.8,188.6,75.8Z" fill="#d8d3cb"/><path d="M189.9,29.1a62.2,62.2,0,0,0-9.8-.2" fill="#d8d3cb"/><path d="M188,32.1s7.2.9,8.3,1.9" fill="#d8d3cb"/><path d="M75.8,146.1s18.5-10.3,24.6-6.6c0,0,6.1,5.3,4.2,11.7,0,0-2.2-9-6.5-9.5,0,0-16.9,6.4-22,6.9S75.8,146.1,75.8,146.1Z" fill="#d8d3cb"/><path d="M74.2,157.3s18.8-9.9,24.7-6c0,0,6,5.4,4,11.7,0,0-2-9.1-6.3-9.6,0,0-17.1,6-22.1,6.3S74.2,157.3,74.2,157.3Z" fill="#d8d3cb"/><path d="M72.7,169.5s18.3-10.6,24.4-7c0,0,6.3,5.1,4.5,11.6,0,0-2.3-9-6.7-9.4,0,0-16.8,6.7-21.9,7.3S72.7,169.5,72.7,169.5Z" fill="#d8d3cb"/><path d="M105.7,101.4s11.1,5.3,32.5,7c0,0,2.3,8.1,1.1,23.7,0,0,6.5-2.5,4.9-24.1a5.7,5.7,0,0,0-2.7-4.3c-2.7-1.5-8.3-3.1-19.7-2.9l-17.2-2Z" fill="#d8d3cb"/><path d="M97.9,102.4s9.8,7.4,30.4,13.4c0,0,.7,8.4-3.6,23.4,0,0,6.8-1.2,9.6-22.6a5.7,5.7,0,0,0-1.8-4.8c-2.4-2-7.5-4.7-18.7-6.8L97.4,99.7Z" fill="#d8d3cb"/><path d="M88.6,101.9s8.4,8.9,27.7,18.4c0,0-.8,8.4-7.6,22.4,0,0,6.9,0,13.3-20.6a5.6,5.6,0,0,0-.9-5c-2-2.4-6.6-5.9-17.3-9.9L88.6,99.1Z" fill="#d8d3cb"/><path d="M94.8,69.5s-63.9,4.1-53.3,71c0,0,6.2,30.8,33.8,48.7l13-10.8s-36-50.8,18-77.3S94.8,69.5,94.8,69.5Z" fill="#d8d3cb"/><path d="M91.4,72c-1.8,6.5-3.8,17.2,0,25.6a4.4,4.4,0,0,0,3.7,2.6c11,1.2,56.5,4.7,88.2-12.5,0,0-1.7-3-7.4-2.8,0,0-.4-1.7,3-2.9,0,0,.4-3-12.6-3.4,0,0,27.1-4.8,22.2-9.4,0,0-56.2-17.8-89.7-5.3A12.2,12.2,0,0,0,91.4,72Z" fill="#d8d3cb"/><path d="M86.9,176.1s15.6,20,40.8,21.1a2.1,2.1,0,0,1,1.9,1.6c.8,3,1.4,9.7-8.8,11.3,0,0,4.5,10.9-8.8,11.4,0,0,3.6,8.1-8,11.1s-28.7-43.4-28.7-43.4Z" fill="#d8d3cb"/><circle cx="159.2" cy="63.7" r="4.4" fill="#d8d3cb"/><path d="M52.3,133.9v-1.2c3.8-.2,4.6-.5,4.6-4.1V105.8c0-3.6-.8-3.9-4.6-4.1v-1.2H62.7l16.3,25V105.8c0-3.6-.7-3.9-4.5-4.1v-1.2H86v1.2c-3.8.2-4.6.5-4.6,4.1v28.1H78.9L59.4,104.1v24.5c0,3.6.8,3.9,4.7,4.1v1.2Z" fill="#7f7f7f"/><path d="M93.2,120.8a18.5,18.5,0,0,0-.1,2.3c0,5.6,1.9,9.5,7.4,9.5,3.1,0,5.8-2.1,7.2-5.5l1.8.9c-1.7,3.9-4.7,6.6-9.3,6.6-7.6,0-11.7-4.9-11.7-11.5s4-11.4,10.8-11.4,9.4,3.3,9.4,9.1Zm11.2-1.9c0-3.5-2.2-5.4-5.1-5.4s-5.3,2.1-5.9,5.4Z" fill="#7f7f7f"/><path d="M123.6,114.8a4.9,4.9,0,0,0-3.8,2.5v12.9c0,1.8.6,2.3,3.2,2.5v1.2H112.4v-1.2c2.6-.2,3.2-.7,3.2-2.5V117.9c0-1.1-.4-1.6-1.5-1.6h-1.7v-.9l5.9-3.7h1.5v3.1a8.7,8.7,0,0,1,6.4-3.1c2.6,0,3.6,1.3,3.6,2.9a2.2,2.2,0,0,1-2.3,2.4C125.4,117,125.2,114.8,123.6,114.8Z" fill="#7f7f7f"/><path d="M131.5,133.9v-1.2c2.6-.2,3.3-.7,3.3-2.5V117.9c0-1.1-.5-1.6-1.5-1.6h-1.8v-.9l6-3.7H139v18.5c0,1.8.6,2.3,3.2,2.5v1.2Zm8.3-29.9a2.7,2.7,0,0,1-2.8,2.6,2.7,2.7,0,0,1-2.9-2.6,2.8,2.8,0,0,1,2.9-2.8A2.8,2.8,0,0,1,139.8,104Z" fill="#7f7f7f"/><path d="M157.5,133.5a10.2,10.2,0,0,1-4.4.9c-3.2,0-5.6-1.2-5.6-5.5V114.3h-3.2v-1c3.7-1.3,5.2-3.9,5.9-8h1.5v7.1h5.8v1.9h-5.8v14.6c0,2.3.8,3.4,2.8,3.4a8,8,0,0,0,3-.6Z" fill="#7f7f7f"/><path d="M165,120.8v2.3c0,5.6,1.9,9.5,7.4,9.5,3.1,0,5.8-2.1,7.2-5.5l1.8.9c-1.7,3.9-4.7,6.6-9.3,6.6-7.6,0-11.7-4.9-11.7-11.5s4-11.4,10.8-11.4,9.4,3.3,9.4,9.1Zm11.3-1.9c0-3.5-2.2-5.4-5.1-5.4s-5.3,2.1-5.9,5.4Z" fill="#7f7f7f"/><path d="M203.9,127.6c0,4.3-3.6,7-8.5,7a12.9,12.9,0,0,1-7.6-2.3l-.6,1.6H186l-1.7-7.2,1-.3c2.9,4.5,6,6.4,10,6.4s5.1-1.2,5.1-3.9-3.1-3.5-6.9-4.3-8.5-2.1-8.5-6.7,3.2-6.2,7.8-6.2a10.6,10.6,0,0,1,6.6,1.9l.5-1.2h1.2l1.4,6.1-1.1.4c-2.2-3.9-5.1-5.4-8.3-5.4s-4.4,1.3-4.4,3.1,2.9,3.1,6.6,3.9S203.9,122.8,203.9,127.6Z" fill="#7f7f7f"/></svg>