<svg id="Layer_1" data-name="Layer 1" xmlns="http://www.w3.org/2000/svg" width="256" height="256" viewBox="0 0 256 256"><circle cx="128" cy="128" r="128" fill="#a1d0c7" stroke="#7f7f7f" stroke-miterlimit="10" stroke-width="0.22"/><path d="M89,106.8H81V111h.9s1.6,1,1.7,2.1-1.8,54.4-.7,61.9H95.1c1.1-7.5-.7-61.9-.7-61.9s1.7-2.1,1.7-2.1h1v-4.2Z" fill="#d8d3cb"/><path d="M115,106.8h-8.1V111h1s1.6,1,1.7,2.1-1.8,54.4-.7,61.9h12.2c1.1-7.5-.7-61.9-.7-61.9s1.7-2.1,1.7-2.1h1v-4.2Z" fill="#d8d3cb"/><path d="M37,106.8H29V111h.9s1.6,1,1.7,2.1-1.8,54.4-.7,61.9H43.1c1.1-7.5-.6-61.9-.6-61.9s1.7-2.1,1.7-2.1h.9v-4.2Z" fill="#d8d3cb"/><path d="M63,106.8H55V111h.9s1.6,1,1.7,2.1-1.8,54.4-.7,61.9H69.1c1.1-7.5-.7-61.9-.7-61.9s1.8-2.1,1.8-2.1h.9v-4.2Z" fill="#d8d3cb"/><path d="M193,106.8h-8.1V111h.9s1.7,1,1.8,2.1-1.8,54.4-.7,61.9h12.2c1.1-7.5-.7-61.9-.7-61.9s1.7-2.1,1.7-2.1h.9v-4.2Z" fill="#d8d3cb"/><path d="M219,106.8h-8.1V111h.9s1.6,1,1.7,2.1-1.7,54.4-.6,61.9h12.2c1.1-7.5-.7-61.9-.7-61.9s1.7-2.1,1.7-2.1h.9v-4.2Z" fill="#d8d3cb"/><path d="M141,106.8h-8.1V111h1s1.6,1,1.7,2.1-1.8,54.4-.7,61.9h12.2c1.1-7.5-.7-61.9-.7-61.9s1.7-2.1,1.7-2.1h1v-4.2Z" fill="#d8d3cb"/><path d="M167,106.8h-8.1V111h1s1.6,1,1.7,2.1-1.8,54.4-.7,61.9h12.2c1.1-7.5-.7-61.9-.7-61.9s1.7-2.1,1.7-2.1h.9v-4.2Z" fill="#d8d3cb"/><rect x="25.3" y="175" width="205.3" height="2.1" fill="#d8d3cb"/><rect x="25.3" y="96.3" width="205.3" height="10.44" fill="#d8d3cb"/><polygon points="236.7 94.3 19.3 94.3 128 50.2 236.7 94.3" fill="#d8d3cb"/><rect x="23.8" y="177.1" width="208.3" height="2.1" fill="#d8d3cb"/><rect x="19.3" y="179.2" width="217.4" height="5.14" fill="#d8d3cb"/><rect x="19.3" y="94.3" width="217.4" height="2.06" fill="#d8d3cb"/><path d="M27,123.4H15.7v-1c3.1-.2,3.7-.4,3.7-3.3V99.2a1,1,0,0,0-1.1-1.1c-4.5,0-6.1,1-8.5,5l-.9-.5,3-7.1h1c.2.6.5.9,1.1.9H28.6a1.2,1.2,0,0,0,1.2-.9h.9l3,7.1-.8.5c-2.5-4-4.3-5-8.5-5a1.1,1.1,0,0,0-1.2,1.1v19.9c0,2.9.7,3.1,3.8,3.3Z" fill="#7f7f7f"/><path d="M46.8,123.4v-1c2.1-.2,2.6-.6,2.6-2v-9.8c0-2.3-1.2-3.2-3-3.2a9,9,0,0,0-5,1.6v11.4c0,1.4.5,1.8,2.5,2v1H35.3v-1c2.2-.2,2.7-.6,2.7-2V100.8c0-.9-.4-1.2-1.2-1.2H35.3v-.8l4.9-3h1.2v11.5a12.5,12.5,0,0,1,5.9-1.9c2.3,0,5.5.9,5.5,5.2v9.8c0,1.4.5,1.8,2.6,2v1Z" fill="#7f7f7f"/><path d="M61.6,112.8a11.5,11.5,0,0,0-.1,1.9c0,4.4,1.6,7.6,6,7.6,2.5,0,4.7-1.7,5.8-4.4l1.5.7c-1.4,3.2-3.9,5.4-7.5,5.4-6.2,0-9.5-4.1-9.5-9.3s3.3-9.3,8.7-9.3,7.6,2.7,7.6,7.4Zm9.1-1.5c0-2.9-1.8-4.4-4.2-4.4s-4.3,1.7-4.8,4.4Z" fill="#7f7f7f"/><path d="M94.5,108.4h6.2c2.9,0,3.4-1.3,3.7-3.7h1v9.2h-1c-.3-2.5-.8-3.8-3.7-3.8H94.5v9c0,2.9.6,3.1,3.7,3.3v1H86.9v-1c3.1-.2,3.8-.4,3.8-3.3V100.7c0-3-.7-3.2-3.8-3.4v-.9h21.4l2.6,6.2-.8.5c-2.4-3.3-5.2-5-10.1-5H95.7c-.8,0-1.2.4-1.2,1.1Z" fill="#7f7f7f"/><path d="M127.6,114.7c0,5.2-3.6,9.3-9.1,9.3a8.9,8.9,0,0,1-9.1-9.3c0-5.3,3.7-9.3,9.1-9.3S127.6,109.4,127.6,114.7Zm-3.7,0c0-4.5-1.5-7.8-5.4-7.8s-5.4,3.3-5.4,7.8,1.5,7.8,5.4,7.8S123.9,119.1,123.9,114.7Z" fill="#7f7f7f"/><path d="M141.1,108.4l4.8-3h1.2v15c0,1.4.5,1.8,2.6,2v1a30.5,30.5,0,0,0-6,.6v-1.9a12.9,12.9,0,0,1-6,1.9c-2.2,0-5.4-.9-5.4-5.2v-8.4c0-.9-.4-1.2-1.2-1.2h-1.4v-.8l4.8-3h1.2v13.4c0,2.2,1.2,3.2,3,3.2a9.4,9.4,0,0,0,5-1.7v-9.9c0-.9-.3-1.2-1.2-1.2h-1.4Z" fill="#7f7f7f"/><path d="M163.2,123.4v-1c2.2-.2,2.6-.6,2.6-2v-9.8c0-2.3-1.2-3.2-3-3.2a9,9,0,0,0-5,1.6v11.4c0,1.4.5,1.8,2.6,2v1h-8.6v-1c2.1-.2,2.6-.6,2.6-2v-10c0-.9-.4-1.2-1.2-1.2h-1.4v-.8l4.8-3h1.2v1.9a12.5,12.5,0,0,1,6-1.9c2.2,0,5.5.9,5.5,5.2v9.8c0,1.4.5,1.8,2.5,2v1Z" fill="#7f7f7f"/><path d="M184.8,98.8l4.8-3h1.2v24.6c0,1.4.5,1.8,2.6,2v1a29.8,29.8,0,0,0-6,.6v-2a7.1,7.1,0,0,1-5.2,2c-5.1,0-8-4.1-8-9.3s2.9-9.3,8-9.3a6.7,6.7,0,0,1,5.2,2v-6.6c0-.9-.4-1.2-1.3-1.2h-1.3Zm2.6,10.4a5.3,5.3,0,0,0-4.3-2.2c-3.9,0-5.2,3.2-5.2,7.7s1.3,7.6,5.2,7.6a5.2,5.2,0,0,0,4.3-2.1Z" fill="#7f7f7f"/><path d="M195.4,123.4v-1c2.1-.2,2.6-.6,2.6-2v-10c0-.9-.3-1.2-1.2-1.2h-1.4v-.8l4.8-3h1.2v15c0,1.4.5,1.8,2.6,2v1Zm6.7-24.2a2.3,2.3,0,1,1-2.3-2.2A2.2,2.2,0,0,1,202.1,99.2Z" fill="#7f7f7f"/><path d="M217.5,123.4v-1c2.1-.2,2.6-.6,2.6-2v-9.8c0-2.3-1.2-3.2-3-3.2a9,9,0,0,0-5,1.6v11.4c0,1.4.5,1.8,2.6,2v1h-8.6v-1c2.1-.2,2.6-.6,2.6-2v-10c0-.9-.4-1.2-1.2-1.2h-1.4v-.8l4.8-3h1.2v1.9a12.5,12.5,0,0,1,6-1.9c2.2,0,5.4.9,5.4,5.2v9.8c0,1.4.6,1.8,2.6,2v1Z" fill="#7f7f7f"/><path d="M247.6,105.9a1.4,1.4,0,0,1-1.4,1.5c-1.2,0-1.3-1-2.3-1s-1.1.5-1.5,1.3a7.1,7.1,0,0,1,1.6,4.5c0,3.8-2.7,6.8-7.4,6.8-2.1,0-2.6-.5-3.9-.5s-2,.6-2,1.3,1.6,1.5,7.5,1.7,7.8,1.7,7.8,4.4-3.3,5.2-8.6,5.2-8.9-1-8.9-4.2a3.6,3.6,0,0,1,2.2-3.1,3,3,0,0,1-2.1-3.1,3.2,3.2,0,0,1,2.9-3.4,6.3,6.3,0,0,1-2.3-5.1c0-3.9,2.7-6.8,7.4-6.8a8.4,8.4,0,0,1,4.7,1.3,5.6,5.6,0,0,1,4.2-2.6C246.7,104.1,247.6,104.7,247.6,105.9Zm-9.9,19a29.9,29.9,0,0,1-5-.5c-1.2.5-1.8,1.2-1.8,2.2s2.5,3,6.5,3,6.2-1.3,6.2-2.8S242.2,125,237.7,124.9Zm2.8-12.7c0-3-.9-5.3-3.9-5.3s-3.9,2.3-3.9,5.3.8,5.3,3.9,5.3S240.5,115.3,240.5,112.2Z" fill="#7f7f7f"/><path d="M66.7,147.9c0,5.3-3.7,9.3-9.1,9.3s-9.1-4-9.1-9.3,3.7-9.3,9.1-9.3S66.7,142.6,66.7,147.9Zm-3.7,0c0-4.5-1.5-7.8-5.4-7.8s-5.4,3.3-5.4,7.8,1.5,7.8,5.4,7.8S63,152.4,63,147.9Z" fill="#7f7f7f"/><path d="M69.1,139.2h2.6v-2.3c0-4.9,3-7.9,7.1-7.9,1.8,0,3,.8,3,2a1.8,1.8,0,0,1-1.8,1.9c-1.8,0-1.6-1.9-3.1-1.9s-1.8,1-1.8,2.9v5.3h3.8v1.6H75.1v12.8c0,1.4.7,1.8,2.8,2v1H69.1v-1c2.1-.2,2.6-.6,2.6-2V140.8H69.1Z" fill="#7f7f7f"/><path d="M112.3,152.8c.6,1.8,1.4,2.6,3.2,2.8v1h-10v-1c2.9-.2,3.5-.7,2.9-2.4l-1.9-4.9H96l-1.9,4.9c-.6,1.5.3,2.2,3.3,2.4v1H88.8v-1a3.6,3.6,0,0,0,3.5-2.6l8.9-23.4h2.2Zm-15.7-6.2h9.3l-4.7-12.1Z" fill="#7f7f7f"/><path d="M125.8,156.3a9.5,9.5,0,0,1-3.5.7c-2.6,0-4.5-1-4.5-4.5V140.8h-2.6V140c3-1.1,4.2-3.2,4.8-6.5h1.2v5.7h4.6v1.6h-4.6v11.7c0,1.9.6,2.8,2.2,2.8a6.9,6.9,0,0,0,2.4-.5Z" fill="#7f7f7f"/><path d="M139.3,156.6v-1c2.1-.2,2.6-.6,2.6-2v-9.8c0-2.3-1.2-3.2-3.1-3.2a9.3,9.3,0,0,0-5,1.6v11.4c0,1.4.5,1.8,2.6,2v1h-8.6v-1c2.1-.2,2.6-.6,2.6-2V134c0-.9-.3-1.2-1.2-1.2h-1.4V132l4.8-3h1.2v11.5a12.9,12.9,0,0,1,6-1.9c2.3,0,5.5.9,5.5,5.2v9.8c0,1.4.5,1.8,2.6,2v1Z" fill="#7f7f7f"/><path d="M154,146c0,.6-.1,1.3-.1,1.9,0,4.5,1.6,7.7,6.1,7.7,2.5,0,4.6-1.7,5.8-4.5l1.4.7c-1.3,3.2-3.8,5.4-7.5,5.4-6.1,0-9.5-4-9.5-9.3s3.3-9.3,8.8-9.3,7.6,2.7,7.6,7.4Zm9.1-1.5c0-2.8-1.7-4.4-4.1-4.4s-4.3,1.7-4.8,4.4Z" fill="#7f7f7f"/><path d="M181,156.6v-1c2.1-.2,2.6-.6,2.6-2v-9.8c0-2.3-1.2-3.2-3-3.2a9,9,0,0,0-5,1.6v11.4c0,1.4.5,1.8,2.6,2v1h-8.7v-1c2.2-.2,2.7-.6,2.7-2v-9.9c0-1-.4-1.3-1.2-1.3h-1.5v-.8l4.9-3h1.2v1.9a12.5,12.5,0,0,1,6-1.9c2.2,0,5.4.9,5.4,5.2v9.8c0,1.4.5,1.8,2.6,2v1Z" fill="#7f7f7f"/><path d="M207.5,151.5c0,3.4-2.9,5.7-6.9,5.7a10.1,10.1,0,0,1-6.1-1.9l-.5,1.3h-1l-1.4-5.8.9-.3c2.3,3.7,4.8,5.2,8.1,5.2s4.1-1,4.1-3.2-2.5-2.8-5.6-3.5-6.9-1.7-6.9-5.3,2.6-5.1,6.3-5.1a9.4,9.4,0,0,1,5.4,1.5l.4-.9h.9l1.1,5-.8.3c-1.8-3.2-4.1-4.4-6.7-4.4s-3.5,1.1-3.5,2.5,2.2,2.5,5.3,3.2S207.5,147.6,207.5,151.5Z" fill="#7f7f7f"/></svg>