<svg xmlns="http://www.w3.org/2000/svg" width="256" height="256" viewBox="0 0 256 256"><circle cx="128" cy="128" r="128" fill="#a1d0c7" stroke="#7f7f7f" stroke-miterlimit="10" stroke-width=".22"/><path fill="#d8d3cb" d="M89 106.8h-8v4.2h.9s1.6 1 1.7 2.1-1.8 54.4-.7 61.9h12.2c1.1-7.5-.7-61.9-.7-61.9l1.7-2.1h1v-4.2zm26 0h-8.1v4.2h1s1.6 1 1.7 2.1-1.8 54.4-.7 61.9h12.2c1.1-7.5-.7-61.9-.7-61.9l1.7-2.1h1v-4.2zm-78 0h-8v4.2h.9s1.6 1 1.7 2.1-1.8 54.4-.7 61.9h12.2c1.1-7.5-.6-61.9-.6-61.9l1.7-2.1h.9v-4.2zm26 0h-8v4.2h.9s1.6 1 1.7 2.1-1.8 54.4-.7 61.9h12.2c1.1-7.5-.7-61.9-.7-61.9l1.8-2.1h.9v-4.2zm130 0h-8.1v4.2h.9s1.7 1 1.8 2.1-1.8 54.4-.7 61.9h12.2c1.1-7.5-.7-61.9-.7-61.9l1.7-2.1h.9v-4.2zm26 0h-8.1v4.2h.9s1.6 1 1.7 2.1-1.7 54.4-.6 61.9h12.2c1.1-7.5-.7-61.9-.7-61.9l1.7-2.1h.9v-4.2zm-78 0h-8.1v4.2h1s1.6 1 1.7 2.1-1.8 54.4-.7 61.9h12.2c1.1-7.5-.7-61.9-.7-61.9l1.7-2.1h1v-4.2zm26 0h-8.1v4.2h1s1.6 1 1.7 2.1-1.8 54.4-.7 61.9h12.2c1.1-7.5-.7-61.9-.7-61.9l1.7-2.1h.9v-4.2zM25.3 175h205.3v2.1H25.3zm0-78.7h205.3v10.44H25.3zm211.4-2H19.3L128 50.2l108.7 44.1zM23.8 177.1h208.3v2.1H23.8zm-4.5 2.1h217.4v5.14H19.3z"/><path fill="#d8d3cb" d="M19.3 94.3h217.4v2.06H19.3z"/></svg>